<svg width="497" height="437" viewBox="0 0 497 437" fill="none" xmlns="http://www.w3.org/2000/svg">
<path d="M246.725 224.28L140.783 183.037L144.494 180.07C152.092 173.94 162.222 172.099 171.492 175.142L234.302 194.723L244.851 201.222L245.763 208.922L257.464 214.955L246.725 224.28Z" fill="#CCD6DA"/>
<path d="M246.725 224.279C246.725 224.279 246.966 224.041 247.422 223.63L249.486 221.81L257.363 214.9V215.095L245.624 209.106H245.535V209.009C245.244 206.626 244.927 204.048 244.598 201.319L244.686 201.46L234.125 194.962H234.189L198.262 183.806L177.735 177.416L172.391 175.759C171.492 175.467 170.593 175.207 169.706 174.947C168.795 174.714 167.869 174.522 166.933 174.373C163.139 173.776 159.233 173.958 155.536 174.904C152.676 175.658 149.98 176.811 147.558 178.315C145.276 179.865 143.095 181.521 141.024 183.275L140.935 182.81L216.244 212.247L238.608 221.041L244.648 223.446L246.219 224.074L246.751 224.312L246.231 224.128L244.674 223.543L238.633 221.247L216.244 212.583L140.669 183.34L140.213 183.167L140.581 182.886C142.673 181.122 144.871 179.452 147.166 177.882C149.649 176.342 152.413 175.164 155.346 174.395C159.155 173.409 163.185 173.219 167.098 173.842C168.06 173.996 169.011 174.195 169.947 174.438C170.859 174.698 171.783 174.969 172.67 175.25L178.014 176.918L198.528 183.33L234.378 194.485L244.902 201.048H244.99V201.135C245.294 203.853 245.598 206.431 245.877 208.824L245.776 208.694L257.451 214.77L257.628 214.857L257.489 214.976C254.007 217.933 251.309 220.24 249.448 221.832L247.434 223.727C246.966 224.095 246.725 224.279 246.725 224.279Z" fill="#14121A"/>
<path d="M230.098 334.025L195.768 148.738C195.336 146.188 194.287 143.744 192.689 141.56C191.091 139.376 188.978 137.502 186.485 136.055L100.222 85.9427C95.7303 83.3363 90.2603 82.2621 84.8888 82.9316C79.5173 83.6011 74.6332 85.9657 71.1978 89.5601L5.24675 158.647C3.34455 160.645 1.94813 162.959 1.14595 165.442C0.343764 167.925 0.153301 170.524 0.586613 173.074L34.9171 358.361C35.328 360.774 36.2908 363.094 37.7504 365.189C39.2101 367.284 41.1381 369.112 43.4242 370.569C45.7104 372.027 48.3099 373.085 51.0742 373.682C53.8385 374.28 56.7134 374.407 59.5348 374.054L211.749 355.079C214.571 354.728 217.283 353.904 219.733 352.656C222.182 351.407 224.32 349.758 226.024 347.803C227.728 345.848 228.965 343.625 229.664 341.261C230.363 338.896 230.511 336.438 230.098 334.025ZM96.7145 148.727C92.6942 148.995 88.6712 148.237 85.1543 146.55C81.6374 144.862 78.7846 142.321 76.9567 139.247C75.1287 136.173 74.4077 132.704 74.8849 129.279C75.362 125.855 77.0159 122.628 79.6373 120.007C82.2587 117.387 85.7299 115.49 89.612 114.556C93.494 113.623 97.6125 113.695 101.447 114.764C105.281 115.832 108.658 117.849 111.152 120.559C113.646 123.27 115.144 126.552 115.456 129.99C115.876 134.6 114.137 139.164 110.622 142.678C107.107 146.191 102.105 148.367 96.7145 148.727Z" fill="#FB8500"/>
<path d="M96.7145 148.727C98.3658 148.501 99.9953 148.172 101.59 147.741C103.439 147.206 105.182 146.431 106.757 145.445C110.572 143.123 113.323 139.738 114.536 135.87C115.749 132.002 115.349 127.893 113.405 124.25C112.615 122.742 111.56 121.347 110.277 120.113C109.622 119.469 108.92 118.861 108.175 118.293C107.373 117.737 106.527 117.231 105.642 116.777C102.031 114.869 97.8037 113.993 93.5718 114.275C89.34 114.558 85.3228 115.984 82.101 118.347C81.3327 118.916 80.6093 119.527 79.9355 120.178C79.3 120.836 78.7122 121.527 78.1753 122.246C77.1364 123.642 76.3508 125.165 75.8452 126.763C74.5864 130.615 74.9296 134.721 76.8165 138.381C78.7033 142.041 82.0167 145.028 86.1912 146.831C87.9329 147.592 89.7983 148.125 91.7251 148.413C93.3768 148.625 95.0444 148.734 96.7145 148.737H96.3853L95.4102 148.792C94.8835 148.829 94.354 148.829 93.8273 148.792C93.1049 148.782 92.3848 148.72 91.6745 148.608C89.7132 148.349 87.809 147.838 86.0266 147.091C83.3982 145.993 81.0726 144.429 79.2039 142.504C77.3352 140.579 75.9659 138.337 75.1867 135.925C74.2112 132.876 74.2112 129.66 75.1867 126.611C75.6956 124.963 76.4986 123.392 77.5675 121.954C78.644 120.429 80.0091 119.067 81.6071 117.925C84.9343 115.454 89.1016 113.962 93.4949 113.67C97.8882 113.377 102.275 114.299 106.009 116.3C107.793 117.22 109.389 118.384 110.733 119.744C112.051 121.04 113.127 122.501 113.924 124.077C115.445 126.956 116.035 130.131 115.634 133.272C115.311 135.759 114.371 138.158 112.877 140.309C111.384 142.461 109.37 144.315 106.972 145.748C105.346 146.723 103.557 147.482 101.666 148.001C100.984 148.2 100.285 148.356 99.5765 148.467C99.0606 148.575 98.5355 148.647 98.0062 148.683L97.0438 148.759L96.7145 148.727Z" fill="#14121A"/>
<path d="M230.098 334.024C230.098 334.024 230.225 334.718 230.351 336.082C230.423 338.115 230.115 340.144 229.44 342.093C229.326 342.418 229.212 342.743 229.085 343.079C228.958 343.414 228.768 343.75 228.591 344.086C228.223 344.83 227.8 345.553 227.325 346.252C226.232 347.8 224.899 349.213 223.361 350.454C221.535 351.881 219.448 353.041 217.181 353.887C216.568 354.123 215.938 354.326 215.295 354.494C214.641 354.688 213.972 354.844 213.294 354.96C211.913 355.22 210.482 355.382 209.013 355.566L109.631 368.054L76.7062 372.169L59.18 374.335C56.0939 374.674 52.959 374.449 49.9817 373.677C47.0045 372.904 44.2525 371.6 41.9071 369.852C39.4947 368.07 37.578 365.85 36.2972 363.353C35.1166 360.787 34.358 358.094 34.0432 355.35C33.0301 349.934 32.0043 344.378 30.9659 338.779C28.8723 327.559 26.7279 316.006 24.5329 304.122C20.1387 280.435 15.5292 255.58 10.7425 229.803C8.34488 216.922 5.91772 203.821 3.46102 190.5C2.84051 187.175 2.19468 183.828 1.5995 180.481C1.28291 178.803 0.978989 177.124 0.662404 175.445C0.275788 173.756 0.0555161 172.043 0.00390625 170.322C0.024102 166.822 1.18156 163.394 3.34705 160.423C4.48396 158.991 5.71868 157.616 7.04476 156.308L10.8438 152.29C31.3332 130.838 51.2865 109.972 70.7037 89.6899C71.9101 88.3982 73.3013 87.2412 74.8447 86.2458C75.6067 85.75 76.4062 85.2977 77.238 84.892C78.0764 84.4785 78.9482 84.1166 79.8467 83.809C83.407 82.5866 87.2775 82.1761 91.0791 82.6177C92.9582 82.8454 94.7962 83.2748 96.5497 83.8956C98.2704 84.5399 99.9085 85.3347 101.438 86.2675L110.593 91.5961L146.216 112.293L180.116 131.994L184.219 134.376C185.574 135.189 186.966 135.925 188.258 136.824C190.813 138.615 192.861 140.877 194.248 143.441C194.94 144.701 195.462 146.023 195.806 147.384C196.135 148.748 196.337 150.08 196.591 151.423C197.089 154.102 197.583 156.759 198.072 159.395L208.887 217.998C215.484 253.825 220.816 282.818 224.501 302.865C226.337 312.873 227.755 320.66 228.718 325.934C229.186 328.577 229.554 330.58 229.794 331.945C230.035 333.31 230.136 333.992 230.136 333.992L229.731 331.956C229.469 330.591 229.089 328.591 228.591 325.956C227.591 320.681 226.134 312.905 224.248 302.898C220.512 282.851 215.105 253.868 208.418 218.052C205.088 200.139 201.441 180.525 197.528 159.46C197.03 156.824 196.536 154.171 196.046 151.499C195.78 150.156 195.578 148.802 195.261 147.481C194.223 143.445 191.627 139.824 187.891 137.203C186.625 136.337 185.244 135.589 183.889 134.788L179.786 132.405L145.874 112.726L110.239 92.0401C107.217 90.2784 104.165 88.5058 101.083 86.7224C99.5899 85.8077 97.99 85.0274 96.3091 84.3939C94.6016 83.7986 92.8155 83.384 90.9905 83.1592C87.3001 82.7284 83.5422 83.1278 80.0873 84.318C79.2198 84.6132 78.374 84.9532 77.5546 85.3361C76.7485 85.7373 75.9705 86.1785 75.2246 86.6574C73.7221 87.6228 72.369 88.7473 71.1976 90.004L11.4516 152.604C10.1853 153.947 8.91895 155.279 7.65261 156.622C6.33394 157.909 5.1116 159.265 3.99288 160.683C1.89685 163.569 0.774857 166.893 0.751048 170.29C0.801976 171.978 1.02228 173.659 1.40955 175.315C1.71347 177.005 2.03005 178.684 2.33397 180.351C2.9587 183.709 3.57921 187.048 4.1955 190.37C6.6522 203.677 9.07935 216.781 11.477 229.684C16.2384 255.46 20.8352 280.316 25.2168 304.002L31.6244 338.66C32.6628 344.27 33.6844 349.797 34.689 355.241C34.993 357.941 35.7346 360.59 36.8924 363.115C38.1337 365.562 40.0035 367.739 42.363 369.483C44.6504 371.188 47.3333 372.46 50.2359 373.216C53.1385 373.972 56.1951 374.195 59.2053 373.87L76.7188 371.704L109.644 367.61L209.064 355.306C210.52 355.122 211.951 354.97 213.319 354.711C213.989 354.599 214.649 354.447 215.295 354.256C215.936 354.098 216.562 353.899 217.169 353.66C219.416 352.835 221.487 351.697 223.298 350.292C224.818 349.054 226.139 347.648 227.223 346.111C227.688 345.434 228.111 344.736 228.49 344.021C228.65 343.674 228.815 343.339 228.984 343.014C229.098 342.678 229.224 342.353 229.338 342.039C230.026 340.102 230.351 338.084 230.301 336.061C230.301 335.378 230.199 334.869 230.174 334.523C230.149 334.176 230.098 334.024 230.098 334.024Z" fill="#14121A"/>
<path d="M36.677 238.586C33.3085 220.478 44.5536 207.795 62.5483 205.315C80.543 202.835 96.0177 211.933 99.3862 230.009C102.755 248.085 91.5096 260.8 73.3502 263.28C55.1909 265.76 40.0708 256.814 36.677 238.586ZM78.3016 232.922C76.3261 222.319 71.1848 218.723 65.2457 219.536C59.6484 220.294 55.7228 225.124 57.6476 235.727C59.5724 246.33 65.119 249.883 70.7036 249.114C76.6427 248.301 80.2265 243.525 78.3016 232.922ZM135.16 196.835L160.272 193.402L96.2583 309.363L71.1088 312.786L135.16 196.835ZM132.21 276.125C128.841 258.049 139.909 245.355 158.068 242.886C176.228 240.417 191.55 249.503 194.919 267.579C198.287 285.655 187.042 298.37 168.87 300.851C150.698 303.331 135.553 294.352 132.159 276.125H132.21ZM173.784 270.46C171.808 259.857 166.477 256.294 160.715 257.074C154.953 257.854 151.192 262.662 153.117 273.265C155.042 283.868 160.411 287.442 166.173 286.652C171.935 285.861 175.709 281.128 173.733 270.46H173.784Z" fill="white"/>
<path d="M432.535 8.94905C433.595 7.81604 434.946 6.90782 436.484 6.29535C438.022 5.68287 439.704 5.38272 441.4 5.41832C442.768 5.41832 444.287 5.68908 445.389 4.98511C446.091 4.39522 446.669 3.70648 447.098 2.94899C447.55 2.44101 448.115 2.01568 448.762 1.69822C449.409 1.38076 450.124 1.17763 450.865 1.10087C451.605 1.02411 452.356 1.07527 453.073 1.25134C453.79 1.42741 454.458 1.7248 455.038 2.12587C455.528 2.6081 456.11 3.01475 456.761 3.32805C459.534 4.30279 461.991 -0.181009 464.751 0.815391C463.606 1.2824 462.656 2.03839 462.029 2.98148C461.732 3.4646 461.634 4.01924 461.751 4.55576C461.868 5.09228 462.194 5.57933 462.674 5.93819C465.346 7.60607 469.006 3.12227 471.881 4.43275C473.464 5.14756 473.907 7.29199 475.68 7.5086C476.37 7.51277 477.056 7.4138 477.706 7.21617C478.85 7.05213 480.025 7.26634 480.991 7.81538C481.957 8.36441 482.644 9.20719 482.91 10.1729C483.303 11.8408 482.531 13.9635 484.177 14.9708C484.723 15.2114 485.324 15.3485 485.938 15.3728C486.552 15.3971 487.165 15.308 487.735 15.1116C487.872 16.6634 487.599 18.2216 486.937 19.6712C488.593 20.3827 489.861 21.6155 490.475 23.1102C491.089 24.605 491.001 26.2451 490.23 27.6857C491.962 28.5119 493.493 29.6149 494.738 30.9348C495.348 31.609 495.725 32.416 495.825 33.2641C495.926 34.1121 495.747 34.9674 495.308 35.7327C495.039 36.0413 494.822 36.3803 494.662 36.7399C494.572 37.1537 494.616 37.5806 494.789 37.9746C495.537 39.4513 496.09 40.9953 496.435 42.5775C496.549 44.1913 495.359 46.0541 493.472 46.0649C493.029 46.0649 492.535 45.9891 492.205 46.2166C492.088 46.3178 491.995 46.4378 491.932 46.5697C491.869 46.7017 491.837 46.843 491.838 46.9855C491.806 48.1552 491.994 49.3218 492.395 50.4404C492.815 51.5526 492.729 52.7591 492.155 53.8195C491.998 54.0716 491.778 54.2914 491.512 54.4638C491.245 54.6361 490.938 54.7569 490.612 54.8177C490.285 54.8785 489.947 54.8778 489.621 54.8158C489.295 54.7538 488.989 54.6319 488.723 54.4585C489.457 56.2058 490.188 57.9495 490.914 59.6896C491.357 60.7727 491.75 61.9857 490.914 62.8304C489.85 63.9135 487.621 63.3178 486.583 62.1806C485.544 61.0434 485.152 59.5488 484.05 58.4333C483.576 58.0117 483.152 57.5509 482.784 57.0578C482.543 56.6463 482.417 56.1372 481.961 55.8773C481.062 55.3466 479.871 56.4513 480.087 57.3719C480.472 58.2367 481.14 58.9886 482.011 59.538C482.44 59.8288 482.76 60.2208 482.931 60.6655C483.102 61.1102 483.117 61.588 482.974 62.0398C482.746 62.4514 482.29 62.7438 482.075 63.1229C481.34 64.5525 483.81 65.6897 484.253 67.2059C484.317 67.7809 484.225 68.3608 483.983 68.9001C483.742 69.4394 483.357 69.9235 482.86 70.3143C481.809 71.3973 479.643 72.3829 478.782 71.1807C478.478 70.7691 478.516 70.2276 478.263 69.7944C477.908 69.3054 477.416 68.8997 476.832 68.6139C475.495 67.751 474.483 66.5727 473.919 65.224C475.452 66.5778 477.123 68.3973 476.326 70.1518C475.905 70.8556 475.358 71.4987 474.705 72.058C473.578 73.271 472.957 74.7764 471.855 76.0003C470.754 77.2241 468.803 78.1663 467.145 77.5273C467.502 78.2522 467.563 79.0592 467.316 79.8173C467.07 80.5753 466.531 81.2398 465.787 81.7028C465.043 82.1658 464.138 82.4001 463.219 82.3676C462.3 82.3351 461.421 82.0377 460.724 81.5238C460.39 81.2038 459.98 80.9489 459.521 80.7765C458.99 80.7022 458.446 80.7585 457.951 80.9389C456.375 81.2988 454.714 81.28 453.15 80.8844C451.586 80.4889 450.18 79.732 449.087 78.697L450.644 78.0905C447.44 77.993 444.097 77.8631 441.299 76.5309C438.5 75.1988 436.448 72.2637 437.5 69.6861C437.981 68.6031 438.994 67.39 438.361 66.3287C438.078 65.9985 437.718 65.7221 437.304 65.517C436.89 65.312 436.43 65.1827 435.955 65.1373L424.292 62.6463C422.362 62.3855 420.553 61.6776 419.062 60.5994C417.694 59.408 417.352 57.2094 418.859 56.1697C417.818 54.7396 416.326 53.5907 414.553 52.8556C412.565 52.0433 410.337 51.7726 408.31 51.0578C406.284 50.343 404.359 48.8917 404.283 46.9747C404.207 45.0577 407.069 43.4115 408.728 44.6461C408.12 41.8627 402.232 42.1551 401.421 39.4042C400.763 37.1623 404.03 35.711 405.588 33.8265C405.145 33.0684 404.144 32.646 403.676 31.8987C402.7 30.3283 404.499 28.5305 406.284 27.6207C408.07 26.711 410.273 25.747 410.539 23.9817C410.805 22.2163 408.804 20.321 409.741 18.6748C410.057 18.2364 410.556 17.9174 411.137 17.7826C411.718 17.6478 412.338 17.7074 412.869 17.9491C414.022 14.5809 421.43 16.4545 423.177 13.2812C423.333 13.0366 423.387 12.7539 423.329 12.4798C423.251 12.2485 423.103 12.0391 422.899 11.8733C421.865 11.1562 420.734 10.5488 419.53 10.0646C418.933 9.81303 418.442 9.40915 418.124 8.90866C417.806 8.40817 417.678 7.83573 417.757 7.27033C418.112 6.18728 420.467 6.014 420.569 7.15119C420.892 6.89024 421.281 6.69576 421.705 6.58253C422.129 6.46929 422.578 6.44029 423.018 6.49771C423.457 6.55514 423.876 6.69749 424.241 6.91394C424.607 7.13039 424.91 7.41524 425.127 7.74687C425.599 7.26724 426.251 6.94244 426.971 6.82789C427.692 6.71333 428.437 6.81612 429.078 7.1187C430.337 7.73595 431.405 8.60107 432.194 9.64219" fill="#14121A"/>
<path d="M454.405 43.3355C452.594 38.8084 448.073 35.451 443.261 33.0141C441.301 31.8925 439.048 31.2007 436.702 30.9997C435.53 30.9186 434.356 31.1329 433.326 31.616C432.295 32.0991 431.452 32.8299 430.902 33.7181L431.674 36.9672C431.915 42.2958 437.297 46.2597 440.247 50.9602C441.514 52.9963 442.679 55.4981 445.313 56.1588C446.707 56.4482 448.178 56.2862 449.441 55.7039C454.494 53.6894 456.254 47.8627 454.405 43.3355Z" fill="#626166"/>
<path d="M458.369 67.704C459.76 65.4975 460.202 62.9433 459.616 60.4869C459.031 58.0305 457.455 55.8279 455.165 54.2634C457.052 51.5666 455.646 47.906 452.974 45.7615C450.302 43.6171 446.643 42.6207 443.16 41.6893C440.235 34.7686 430.104 30.8589 422.088 33.469C416.922 28.5303 407.601 28.7253 400.56 31.4004C398.893 32.1634 397.106 32.7178 395.254 33.0466C393.867 33.1224 392.476 33.1224 391.088 33.0466C383.49 33.0466 376.715 38.3968 374.727 44.6893C374.496 45.7153 374.104 46.7098 373.562 47.646C372.614 48.7495 371.503 49.7434 370.257 50.6027C369.042 51.6624 368.107 52.9335 367.517 54.3295C366.927 55.7254 366.695 57.2137 366.838 58.6931C367.104 61.1949 368.446 63.7401 367.572 66.1336C367.129 67.3358 366.167 68.3755 365.863 69.6101C365.014 73.195 369.991 76.1842 369.662 79.8341C369.662 80.5705 369.332 81.2962 369.206 82.0002C368.969 83.5143 369.373 85.0508 370.346 86.3323C371.105 87.3179 372.207 88.1627 372.46 89.3215C372.531 90.2134 372.463 91.1093 372.258 91.9858C372.08 94.1519 378.703 101.733 381.021 102.632L445.11 95.9281C447.46 95.1902 449.482 93.8445 450.896 92.0782C452.31 90.3118 453.045 88.2126 453 86.0724C452.859 85.3707 452.956 84.6492 453.278 83.993C453.715 83.5172 454.257 83.1197 454.874 82.8233C458.673 80.4622 458.457 75.5669 457.406 71.6354C457.222 71.0907 457.149 70.5227 457.191 69.9567C457.399 69.1448 457.8 68.3781 458.369 67.704Z" fill="#14121A"/>
<path d="M440.133 69.8591C438.867 60.1117 430.003 49.8228 417.998 46.357C410.4 44.191 404.904 44.7866 401.117 44.8408C395.813 45.0032 390.694 46.5447 386.44 49.2596C383.021 50.3426 371.662 61.9637 372.701 73.0216C373.853 85.3141 375.816 100.282 379.032 109.163C385.503 127.022 402.27 127.336 402.27 127.336L405.486 150.957L449.491 136.997L440.133 69.8591Z" fill="#FCAE55"/>
<path d="M410.526 102.502C410.264 101.582 409.62 100.774 408.715 100.228C407.886 99.7171 406.883 99.455 405.861 99.4824C404.84 99.5098 403.857 99.8252 403.067 100.379C402.25 101.02 401.647 101.835 401.322 102.742C400.997 103.648 400.961 104.613 401.218 105.535C401.742 106.06 402.392 106.483 403.124 106.775C403.856 107.066 404.653 107.22 405.461 107.224H406.22C407.486 107.125 408.661 106.622 409.513 105.816C409.968 105.368 410.296 104.835 410.472 104.26C410.648 103.686 410.666 103.084 410.526 102.502Z" fill="#FB8500"/>
<path d="M380.527 87.524C380.625 88.1346 380.997 88.6886 381.564 89.0686C382.132 89.4487 382.849 89.625 383.566 89.5601C383.919 89.5411 384.263 89.4619 384.579 89.3272C384.895 89.1926 385.177 89.0052 385.407 88.7761C385.637 88.5469 385.811 88.2808 385.919 87.9932C386.027 87.7056 386.067 87.4025 386.035 87.1016C385.941 86.4899 385.569 85.9342 385.001 85.5536C384.433 85.1731 383.713 84.9979 382.996 85.0655C382.644 85.0846 382.299 85.1637 381.983 85.2984C381.667 85.4331 381.386 85.6205 381.156 85.8496C380.926 86.0787 380.751 86.3449 380.643 86.6324C380.535 86.92 380.496 87.2232 380.527 87.524Z" fill="#14121A"/>
<path d="M378.69 79.4444C379.083 79.7043 380.932 78.1447 383.882 77.7873C386.833 77.4299 389.214 78.4263 389.48 78.0797C389.606 77.9173 389.176 77.4083 388.137 76.9425C386.733 76.3397 385.145 76.124 383.591 76.3252C382.058 76.5107 380.634 77.1102 379.526 78.0364C378.716 78.7404 378.501 79.3252 378.69 79.4444Z" fill="#14121A"/>
<path d="M399.294 97.2385C397.669 97.0199 396.02 96.969 394.381 97.0869C393.608 97.0869 392.874 97.0868 392.684 96.6536C392.502 95.9968 392.564 95.3078 392.861 94.6825C393.304 93.0363 393.773 91.3142 394.267 89.5056C396.179 82.1409 397.458 76.13 397.103 76.065C396.749 76 394.925 81.9134 393 89.2781C392.544 91.0868 392.114 92.8197 391.734 94.4659C391.38 95.2984 391.38 96.211 391.734 97.0435C391.882 97.2564 392.084 97.438 392.325 97.5749C392.566 97.7118 392.84 97.8004 393.127 97.8341C393.548 97.8752 393.972 97.8752 394.393 97.8341C396.049 97.8086 397.695 97.6086 399.294 97.2385Z" fill="#14121A"/>
<path d="M402.27 127.336C412.353 126.23 421.88 122.751 429.787 117.286C429.787 117.286 424.722 131.831 403.004 132.751L402.27 127.336Z" fill="#FB8500"/>
<path d="M408.26 97.921C407.779 97.921 408.26 100.694 405.816 102.968C403.372 105.242 399.953 105.372 399.991 105.751C399.991 105.936 400.839 106.195 402.283 106.044C404.161 105.84 405.893 105.072 407.171 103.878C408.405 102.733 409.068 101.221 409.02 99.6647C408.944 98.5059 408.475 97.8777 408.26 97.921Z" fill="#14121A"/>
<path d="M378.298 69.8487C378.893 70.401 381.084 69.7187 383.756 69.5779C386.428 69.4371 388.707 69.762 389.188 69.1447C389.404 68.8415 389.011 68.2783 387.998 67.7692C386.615 67.1667 385.065 66.9005 383.518 66.9998C381.97 67.0991 380.484 67.5601 379.222 68.3324C378.31 68.9714 378.032 69.5779 378.298 69.8487Z" fill="#14121A"/>
<path d="M412.147 84.4478C412.231 85.0609 412.031 85.6777 411.591 86.1671C411.152 86.6565 410.506 86.9799 409.792 87.0688C409.445 87.1247 409.088 87.1207 408.743 87.0568C408.397 86.9929 408.071 86.8706 407.781 86.697C407.492 86.5234 407.247 86.302 407.059 86.0459C406.872 85.7898 406.746 85.5043 406.689 85.206C406.606 84.5929 406.806 83.9761 407.245 83.4868C407.685 82.9974 408.331 82.6739 409.045 82.585C409.392 82.5291 409.749 82.5332 410.094 82.597C410.439 82.6609 410.766 82.7832 411.055 82.9569C411.345 83.1305 411.59 83.3518 411.778 83.6079C411.965 83.864 412.091 84.1496 412.147 84.4478Z" fill="#14121A"/>
<path d="M419.201 75.4805C418.897 75.8162 416.668 74.6791 413.692 74.9606C410.716 75.2422 408.715 76.6935 408.348 76.4119C408.171 76.2928 408.462 75.7079 409.323 75.0256C410.514 74.1518 411.991 73.6146 413.553 73.4877C415.091 73.3417 416.643 73.6187 417.985 74.2783C418.947 74.7982 419.353 75.3505 419.201 75.4805Z" fill="#14121A"/>
<path d="M418.618 66.9137C418.099 67.5418 415.744 67.1519 412.996 67.3794C410.248 67.6068 407.93 68.2241 407.36 67.6718C407.082 67.401 407.36 66.7837 408.323 66.1555C409.628 65.3492 411.173 64.876 412.78 64.7909C414.374 64.6628 415.977 64.9257 417.402 65.549C418.441 66.0472 418.833 66.6104 418.618 66.9137Z" fill="#14121A"/>
<path d="M439.513 87.5994C439.285 86.2456 440.589 82.8015 442.121 82.4008C446.224 81.3177 453.835 80.6896 455.443 89.798C457.634 102.242 442.565 101.549 442.476 101.202C442.387 100.856 440.285 92.2998 439.513 87.5994Z" fill="#FCAE55"/>
<path d="M445.692 96.134C445.692 96.134 445.971 96.2531 446.427 96.3723C447.069 96.5156 447.751 96.4379 448.326 96.1557C449.783 95.4734 450.707 93.2206 450.391 90.9679C450.232 89.8969 449.8 88.8688 449.124 87.957C448.918 87.586 448.61 87.2632 448.226 87.0161C447.843 86.7691 447.395 86.6051 446.921 86.5382C446.616 86.5028 446.306 86.5635 446.05 86.709C445.794 86.8545 445.608 87.0748 445.528 87.3289C445.389 87.6971 445.528 87.9354 445.452 87.9678C445.376 88.0003 445.11 87.7946 445.135 87.2639C445.158 86.9477 445.31 86.6485 445.566 86.4191C445.741 86.262 445.951 86.1369 446.184 86.0512C446.416 85.9656 446.667 85.9212 446.921 85.9209C447.534 85.9436 448.13 86.101 448.651 86.378C449.172 86.6549 449.601 87.0421 449.897 87.5021C450.714 88.4976 451.227 89.6516 451.391 90.8596C451.746 93.3831 450.657 95.9282 448.643 96.7188C448.271 96.8708 447.865 96.9496 447.453 96.9496C447.041 96.9496 446.634 96.8708 446.262 96.7188C445.768 96.4372 445.642 96.1665 445.692 96.134Z" fill="#FB8500"/>
<path d="M369.408 73.6065C372.08 71.6678 373.6 69.2743 372.928 66.3609C374.955 66.61 376.575 64.1948 377.475 62.6352C378.374 61.0757 379.653 60.1551 379.273 58.4222C379.153 58.0684 379.153 57.6929 379.273 57.3392C379.488 56.8301 380.159 56.5919 380.729 56.3536C382.208 55.7319 383.482 54.8038 384.436 53.6538C385.389 52.5038 385.991 51.1683 386.187 49.7687C389.524 50.5496 393.034 50.6128 396.406 49.9528C397.324 50.8008 398.48 51.435 399.763 51.7959C401.047 52.1568 402.417 52.2326 403.744 52.0159C405.071 51.7993 406.312 51.2974 407.35 50.5576C408.388 49.8177 409.189 48.8642 409.678 47.7867C410.298 48.4848 411.085 49.0614 411.987 49.4779C412.889 49.8945 413.885 50.1413 414.908 50.2019C416.954 50.3014 419.006 50.1445 420.999 49.7362C420.906 51.4725 421.549 53.1793 422.81 54.5424C424.071 55.9054 425.865 56.8332 427.862 57.155C428.415 57.1589 428.943 57.3497 429.331 57.6857C429.441 57.9085 429.498 58.1479 429.498 58.3897C429.498 58.6315 429.441 58.8709 429.331 59.0937C429.174 59.8455 429.196 60.6166 429.395 61.361C429.595 62.1054 429.967 62.8079 430.491 63.4265C431.014 64.0451 431.678 64.5671 432.443 64.9615C433.207 65.3559 434.057 65.6145 434.941 65.7219C434.461 66.2093 434.116 66.7829 433.931 67.4002C433.747 68.0175 433.727 68.6625 433.874 69.2872C434.022 69.9118 434.332 70.4999 434.782 71.0077C435.232 71.5156 435.81 71.93 436.473 72.2202C437.056 72.4259 437.803 72.6642 437.803 73.2057C437.785 73.4072 437.707 73.6012 437.575 73.7689C436.563 75.079 436.006 76.6072 435.967 78.1769C436.094 79.7257 437.6 81.3069 439.411 81.1553C438.955 81.5404 438.596 82.0015 438.356 82.5101C438.117 83.0186 438.002 83.5639 438.018 84.112C438.17 85.195 439.639 86.1373 440.754 85.6066C441.235 85.3791 448.276 83.2672 448.542 82.8665C451.859 77.5704 445.794 72.9133 444.388 67.0324C442.85 61.1474 439.733 55.6488 435.283 50.9709C433.51 48.9418 431.432 47.1211 429.103 45.5556C426.339 43.9172 423.365 42.5546 420.239 41.4942C416.225 39.978 412.109 38.4834 407.753 38.1585C399.623 37.5303 391.86 40.9744 384.959 44.765C382.297 46.1351 379.861 47.8033 377.715 49.7254C375.346 52.1808 373.51 54.9796 372.295 57.989C370.178 62.2215 369.109 66.7829 369.155 71.3862" fill="#14121A"/>
<path d="M365.761 69.5888C365.863 69.0897 366.055 68.6073 366.331 68.1592C366.572 67.7043 366.926 67.1736 367.23 66.5021C367.576 65.7294 367.723 64.9018 367.661 64.0761C367.571 63.039 367.381 62.0102 367.091 61.0002C366.732 59.7864 366.561 58.5374 366.584 57.2854C366.668 55.8395 367.099 54.4238 367.851 53.1265C368.266 52.4203 368.771 51.7555 369.358 51.1446C370.004 50.5041 370.707 49.9067 371.46 49.3575C372.229 48.8234 372.888 48.1828 373.41 47.4622C373.865 46.6648 374.197 45.8202 374.398 44.9496C374.949 43.075 375.879 41.2974 377.146 39.6968C378.494 37.9702 380.212 36.4781 382.211 35.2996C383.247 34.6802 384.359 34.1608 385.529 33.7509C386.751 33.3401 388.026 33.0565 389.328 32.9061C389.974 32.8303 390.594 32.8303 391.303 32.8086C392.012 32.787 392.633 32.8086 393.304 32.8736C394.624 32.9513 395.948 32.7927 397.192 32.4079C398.458 32.0288 399.725 31.4657 400.991 31.0216C402.295 30.564 403.642 30.2017 405.018 29.9386C406.416 29.6555 407.839 29.4707 409.273 29.3862C410.74 29.3216 412.211 29.376 413.667 29.5487C416.67 29.8889 419.473 31.0252 421.683 32.7978L422.329 33.3502H422.088C426.215 32.1414 430.727 32.331 434.696 33.8802C438.665 35.4293 441.789 38.2201 443.426 41.6788L443.299 41.5705C445.167 42.0343 446.998 42.5986 448.783 43.26C450.531 43.8962 452.125 44.8073 453.481 45.9459C454.772 47.0718 455.675 48.4811 456.089 50.0182C456.516 51.4852 456.266 53.0362 455.393 54.3504V54.1446C457.64 55.6417 459.204 57.7645 459.812 60.1446C460.409 62.261 460.237 64.4826 459.318 66.5129C459.109 66.9812 458.855 67.434 458.559 67.8667C458.267 68.2891 457.964 68.6899 457.736 69.1014C457.507 69.5019 457.398 69.9448 457.419 70.3902C457.466 70.8246 457.551 71.2553 457.672 71.6791C458.065 73.2409 458.243 74.8365 458.204 76.4336C458.206 77.7284 457.918 79.0115 457.356 80.2134C456.93 81.0956 456.271 81.8814 455.431 82.5095C454.747 83.0185 454.101 83.2676 453.772 83.5384C453.6 83.6738 453.443 83.8224 453.303 83.9824C453.405 83.7991 453.552 83.6366 453.734 83.5059C454.063 83.2135 454.696 82.9535 455.355 82.4228C456.164 81.7938 456.796 81.0162 457.204 80.1484C457.739 78.9604 458.006 77.696 457.989 76.4228C457.979 74.839 457.754 73.2616 457.318 71.7224C457.188 71.2887 457.099 70.8469 457.052 70.4011C457.027 69.9194 457.14 69.4399 457.381 69.0039C457.632 68.5811 457.906 68.1691 458.204 67.7693C459.746 65.4725 460.169 62.7493 459.382 60.188C458.785 57.8788 457.261 55.8212 455.076 54.372L454.937 54.2962L455.026 54.1663C455.857 52.9058 456.084 51.4188 455.659 50.0182C455.25 48.544 454.374 47.1948 453.126 46.1192C451.799 45.0154 450.245 44.1305 448.542 43.5091C446.769 42.8598 444.951 42.3064 443.097 41.852H442.995V41.7654C441.389 38.4038 438.341 35.694 434.476 34.1901C430.611 32.6863 426.221 32.5021 422.202 33.6751H422.075L421.961 33.5776L421.341 33.0469C419.196 31.3238 416.471 30.2213 413.553 29.8952C412.132 29.7203 410.693 29.6695 409.26 29.7436C407.851 29.8189 406.453 30.0001 405.081 30.2851C403.726 30.5495 402.4 30.9119 401.117 31.3682C399.851 31.8122 398.585 32.3754 397.318 32.7545C396.667 32.9596 395.992 33.1048 395.305 33.1877C394.628 33.2543 393.946 33.2724 393.266 33.2419C392.595 33.2419 391.937 33.1769 391.291 33.166C390.647 33.1694 390.004 33.2056 389.366 33.2743C388.107 33.4068 386.873 33.6761 385.693 34.0758C384.549 34.4778 383.458 34.9824 382.439 35.5812C378.658 37.8541 375.943 41.2008 374.778 45.0254C374.569 45.9208 374.22 46.788 373.739 47.603C373.203 48.3525 372.522 49.019 371.726 49.5741C370.991 50.0908 370.309 50.6597 369.687 51.2745C369.109 51.8671 368.612 52.5138 368.205 53.2023C367.467 54.4692 367.036 55.8507 366.939 57.2638C366.895 58.4996 367.048 59.7348 367.395 60.9353C367.68 61.9562 367.862 62.9961 367.939 64.0436C367.986 64.8866 367.822 65.7284 367.458 66.5129C367.129 67.1844 366.762 67.7151 366.508 68.1592C366.307 68.5084 366.138 68.8705 366.002 69.2422C365.935 69.3642 365.855 69.4803 365.761 69.5888Z" fill="#626166"/>
<path d="M414.794 31.563C414.794 31.563 414.376 31.4114 413.616 31.2056C412.55 30.9088 411.432 30.7696 410.311 30.7941C408.655 30.8216 407.038 31.2253 405.625 31.9637C403.907 32.8898 402.576 34.2589 401.826 35.8735C401.598 36.3546 401.432 36.8559 401.333 37.3681C401.274 37.5922 401.273 37.8246 401.33 38.049C401.386 38.2734 401.5 38.4846 401.662 38.6678L402.08 39.0468L401.472 38.9819C399.899 38.8067 398.308 39.1643 397.04 39.9783C396.035 40.6354 395.303 41.55 394.95 42.5884C394.704 43.2898 394.626 44.0267 394.722 44.7545C394.778 45.0086 394.816 45.2654 394.836 45.5234C394.836 45.5234 394.836 45.5234 394.748 45.3393C394.663 45.1543 394.604 44.9618 394.57 44.7653C394.388 43.8377 394.5 42.8854 394.894 42.0073C395.288 41.1292 395.951 40.3575 396.812 39.7725C397.476 39.3332 398.235 39.0111 399.046 38.8252C399.857 38.6393 400.703 38.5931 401.535 38.6894L401.345 39.0035C401.136 38.7793 400.988 38.5183 400.912 38.2392C400.835 37.9602 400.832 37.6701 400.902 37.3898C401.001 36.8469 401.175 36.316 401.421 35.8085C402.203 34.1184 403.608 32.6924 405.423 31.7471C406.657 31.1166 408.043 30.7343 409.476 30.6293C410.908 30.5242 412.35 30.6991 413.692 31.1406C413.979 31.2364 414.258 31.3485 414.528 31.4764C414.705 31.498 414.794 31.5414 414.794 31.563Z" fill="#626166"/>
<path d="M440.792 43.0214C440.792 43.0214 440.665 43.2164 440.361 43.5305C439.911 43.9629 439.41 44.3548 438.867 44.7002C438.049 45.2338 437.101 45.6039 436.094 45.7832C434.798 46.029 433.441 45.8472 432.295 45.2742L432.611 45.1984L432.269 45.7615L431.851 46.3139C430.988 47.328 429.843 48.143 428.521 48.6858C427.457 49.1376 426.3 49.4062 425.115 49.4764C424.323 49.5419 423.524 49.5017 422.746 49.3572C422.46 49.3071 422.183 49.2233 421.923 49.1081C422.967 49.2722 424.03 49.3268 425.089 49.2706C426.226 49.1631 427.329 48.8767 428.344 48.4258C429.59 47.8914 430.668 47.1075 431.484 46.1406C431.627 45.974 431.758 45.8004 431.877 45.6207L432.206 45.0901L432.32 44.9059L432.523 45.0142C433.571 45.5343 434.805 45.7077 435.992 45.5016C436.958 45.3424 437.873 45.0102 438.677 44.5269C440.083 43.6821 440.741 42.9673 440.792 43.0214Z" fill="#626166"/>
<path d="M450.403 53.6895C450.419 53.7683 450.419 53.8489 450.403 53.9277C450.369 54.15 450.292 54.3659 450.176 54.5667C449.728 55.3159 448.969 55.8952 448.048 56.1913C446.684 56.5737 445.22 56.6113 443.831 56.2996C443.01 56.1749 442.198 56.0085 441.4 55.8014C440.482 55.6046 439.674 55.1366 439.12 54.4801L439.006 54.2851H439.361C438.207 55.3629 436.871 56.2865 435.397 57.0252C434.174 57.6245 432.779 57.9207 431.37 57.8808C430.421 57.856 429.496 57.6209 428.686 57.1985C428.467 57.0835 428.263 56.9492 428.078 56.7978C427.964 56.7003 427.901 56.6353 427.913 56.6245C427.926 56.6137 428.205 56.8195 428.774 57.0686C429.58 57.4261 430.475 57.6119 431.383 57.6101C432.72 57.6105 434.032 57.3038 435.182 56.722C436.593 55.979 437.872 55.0672 438.981 54.0144L439.184 53.8302L439.336 54.0685L439.437 54.2201C439.937 54.8032 440.657 55.2203 441.476 55.4007C442.261 55.6173 443.084 55.7581 443.844 55.9097C445.16 56.2271 446.554 56.2271 447.871 55.9097C448.744 55.6552 449.484 55.145 449.96 54.4692C450.134 54.2208 450.282 53.9599 450.403 53.6895Z" fill="#626166"/>
<path d="M458.673 7.25928C458.673 7.25928 458.419 7.25928 458.001 7.4434C457.396 7.67541 456.882 8.05137 456.52 8.52644C455.964 9.27736 455.714 10.1648 455.811 11.0499C455.99 12.1989 456.365 13.3192 456.925 14.3749L457.014 14.5698H456.773C454.963 14.7492 453.27 15.4256 451.948 16.4976C451.201 17.0896 450.626 17.8232 450.27 18.6394C449.913 19.4557 449.786 20.332 449.897 21.198C449.986 21.9884 450.286 22.7508 450.773 23.4266C451.261 24.1025 451.922 24.6739 452.708 25.097L453.253 25.3678L452.632 25.4327C451.592 25.5578 450.594 25.8659 449.7 26.3375C448.807 26.8091 448.037 27.4341 447.44 28.1728C446.487 29.3588 446.04 30.789 446.174 32.2234C446.263 33.1698 446.587 34.0892 447.124 34.9202C447.491 35.505 447.782 35.7866 447.744 35.7975C447.706 35.8083 447.668 35.7433 447.529 35.6133C447.327 35.42 447.149 35.2095 446.997 34.9852C446.395 34.1546 446.022 33.2174 445.908 32.2451C445.705 30.754 446.127 29.2498 447.098 27.9996C447.716 27.2156 448.518 26.5505 449.454 26.047C450.389 25.5434 451.437 25.2125 452.531 25.0753L452.455 25.4111C451.607 24.9644 450.892 24.3552 450.367 23.6315C449.841 22.9078 449.52 22.0895 449.428 21.2414C449.291 20.2947 449.435 19.3338 449.846 18.4471C450.254 17.6298 450.853 16.8925 451.606 16.281C452.995 15.1634 454.775 14.4671 456.672 14.2991L456.507 14.5157C455.952 13.4245 455.597 12.2664 455.456 11.0824C455.37 10.1504 455.661 9.22143 456.279 8.45063C456.67 7.95083 457.238 7.57129 457.9 7.36759C458.068 7.31799 458.242 7.28527 458.419 7.27011L458.673 7.25928Z" fill="#626166"/>
<path d="M489.141 31.1297C489.073 31.1846 489.001 31.2352 488.926 31.2814C488.761 31.3572 488.546 31.5088 488.242 31.6496C487.35 32.0741 486.39 32.3843 485.392 32.5702C483.867 32.8718 482.285 32.9013 480.745 32.6568C478.757 32.3681 476.9 31.6189 475.376 30.4908L475.705 30.4258C475.181 31.5262 474.378 32.5131 473.353 33.3148C472.328 34.1166 471.107 34.7132 469.778 35.0612C468.35 35.4084 466.83 35.3619 465.434 34.9284C464.039 34.4948 462.838 33.6963 462.003 32.646H462.37C462.153 33.5154 461.667 34.3193 460.965 34.9745C460.341 35.5629 459.599 36.0508 458.774 36.415C457.41 36.9843 455.922 37.3052 454.405 37.3572C453.425 37.3945 452.444 37.3764 451.467 37.3031C451.119 37.2841 450.772 37.248 450.429 37.1948C450.778 37.1667 451.13 37.1667 451.48 37.1948C452.151 37.1948 453.139 37.1948 454.38 37.1948C455.853 37.1157 457.293 36.7804 458.609 36.2092C459.44 35.8596 460.171 35.3584 460.751 34.7408C461.331 34.1233 461.745 33.4045 461.965 32.6352L462.079 32.1911L462.345 32.5702C463.144 33.5516 464.281 34.2952 465.598 34.6971C466.914 35.099 468.345 35.1392 469.69 34.8121C470.954 34.4775 472.116 33.9092 473.094 33.1474C474.072 32.3856 474.843 31.449 475.35 30.4041L475.452 30.1875L475.667 30.3391C477.134 31.4403 478.917 32.1879 480.834 32.5052C482.331 32.7558 483.87 32.7558 485.367 32.5052C486.699 32.2129 487.972 31.7491 489.141 31.1297Z" fill="#626166"/>
<path d="M476.87 51.2091C476.846 51.3002 476.799 51.3855 476.731 51.4583C476.527 51.6581 476.258 51.8015 475.958 51.8698C474.87 52.0807 473.738 52.0546 472.666 51.794C471.05 51.4614 469.597 50.7038 468.512 49.6279C467.2 48.28 466.527 46.5602 466.625 44.8084L466.98 44.9708C465.291 45.9485 463.281 46.4381 461.243 46.3679C459.601 46.3184 457.994 45.9479 456.545 45.2849C455.576 44.8424 454.685 44.2845 453.898 43.6278C453.591 43.4085 453.326 43.149 453.113 42.8589C454.197 43.707 455.401 44.4348 456.697 45.025C458.112 45.6389 459.67 45.9755 461.256 46.0105C463.199 46.0542 465.111 45.5812 466.726 44.6567L467.081 44.4401V44.8625C466.983 46.3723 467.492 47.8652 468.525 49.0929C469.557 50.3205 471.05 51.2088 472.754 51.6099C473.78 51.8735 474.862 51.9364 475.92 51.794C476.31 51.7061 476.649 51.4977 476.87 51.2091Z" fill="#626166"/>
<path d="M426.887 11.5591C426.613 12.8517 426.613 14.1762 426.887 15.4689C427.234 17.0165 428.078 18.4511 429.323 19.6121C430.569 20.7732 432.168 21.6148 433.941 22.0429C435.061 22.328 436.232 22.4417 437.398 22.3787H437.664V22.6061C437.198 25.0636 437.721 27.5835 439.146 29.7542C439.374 30.1319 439.637 30.494 439.931 30.8373C440.024 30.9595 440.149 31.0615 440.296 31.1348C440.444 31.2082 440.609 31.251 440.779 31.2596C440.886 31.2593 440.991 31.2388 441.088 31.1994C441.184 31.1601 441.269 31.103 441.336 31.0322C441.38 30.9772 441.418 30.9193 441.45 30.8589C441.45 30.8589 441.45 30.9347 441.45 31.0647C441.384 31.1556 441.293 31.2316 441.185 31.2863C441.077 31.3409 440.955 31.3726 440.83 31.3788C440.633 31.383 440.438 31.348 440.26 31.2766C440.082 31.2051 439.926 31.0992 439.804 30.9672C439.483 30.6269 439.195 30.2647 438.943 29.8842C437.398 27.6873 436.806 25.0954 437.271 22.5628L437.499 22.7686C436.283 22.8434 435.06 22.7297 433.89 22.4328C431.863 21.9254 430.062 20.9062 428.724 19.5086C427.816 18.5488 427.154 17.4372 426.779 16.2453C426.404 15.0535 426.324 13.8077 426.546 12.588C426.604 12.3282 426.681 12.0714 426.774 11.819C426.797 11.7282 426.835 11.6407 426.887 11.5591Z" fill="#626166"/>
<path d="M385.174 396.126L433.498 388.642C433.498 388.642 458.634 428.141 467.689 427.502L454.076 346.826L378.247 355.859L385.174 396.126Z" fill="#626166"/>
<path d="M425.203 364.198C425.349 363.388 425.839 362.653 426.58 362.133C427.321 361.613 428.26 361.346 429.217 361.382C430.169 361.472 431.043 361.873 431.659 362.5C432.274 363.127 432.584 363.933 432.523 364.75C432.32 366.386 430.129 368 428.255 367.718C426.381 367.436 424.621 365.422 425.279 363.884" fill="#CCD6DA"/>
<path d="M456.026 346.88L448.681 347.746L462.332 425.26C462.332 425.26 464.776 428.628 467.664 427.859L456.026 346.88Z" fill="#14121A"/>
<path d="M433.244 390.007C433.7 389.931 433.574 387.938 434.726 385.815C435.878 383.693 437.651 382.426 437.411 382.09C437.17 381.754 434.599 382.664 433.257 385.252C431.915 387.841 432.877 390.148 433.244 390.007Z" fill="#14121A"/>
<path d="M438.766 397.967C439.222 397.967 439.715 396.191 441.438 394.621C443.16 393.05 445.161 392.4 445.072 392.011C444.983 391.621 442.337 391.686 440.247 393.689C438.158 395.693 438.322 398.011 438.766 397.967Z" fill="#14121A"/>
<path d="M451.416 401.346C451.416 400.978 449.061 400.718 446.706 402.039C444.35 403.361 443.666 405.288 444.072 405.451C444.477 405.613 445.642 404.26 447.592 403.198C449.542 402.137 451.429 401.704 451.416 401.346Z" fill="#14121A"/>
<path d="M426.28 391.502C426.634 391.242 425.406 389.65 424.811 387.451C424.215 385.252 424.418 383.368 423.975 383.27C423.532 383.173 422.506 385.198 423.24 387.776C423.975 390.354 426.001 391.783 426.28 391.502Z" fill="#14121A"/>
<path d="M385.174 295.63C383.376 295.208 315.044 351.58 302.039 365.422C288.767 379.501 302.469 397.913 312.309 398.065C332.57 398.455 428.458 393.126 428.458 393.126L418.441 355.219L456.722 344.194L422.531 290.648L385.174 295.63Z" fill="#14121A"/>
<g opacity="0.3">
<path d="M366.546 311.638L364.014 313.956C364.014 313.956 409.133 354.429 422.974 353.877L445.123 347.454L370.193 308.129L366.546 311.638Z" fill="#14121A"/>
</g>
<path d="M418.707 356.173C418.783 356.411 402.358 360.743 381.983 365.855C361.607 370.967 345.094 374.92 345.006 374.682C344.917 374.444 361.342 370.112 381.73 365C402.118 359.888 418.618 355.935 418.707 356.173Z" fill="#14121A"/>
<path d="M320.401 360.342L335.711 401.855C335.711 401.855 291.516 429.094 293.466 437L388.632 414.516L367.902 349.003L320.401 360.342Z" fill="#626166"/>
<path d="M363.988 391.372C364.982 391.393 365.931 391.727 366.653 392.311C367.376 392.895 367.82 393.687 367.901 394.534C367.91 395.382 367.54 396.2 366.867 396.822C366.193 397.444 365.268 397.823 364.279 397.881C362.304 397.881 360.024 396.202 360.151 394.512C360.278 392.823 362.443 391.014 364.381 391.393" fill="#CCD6DA"/>
<path d="M389.252 416.216L387.289 409.87L295.922 431.985C295.922 431.985 292.199 434.563 293.504 437L389.252 416.216Z" fill="#14121A"/>
<path d="M334.026 401.801C334.178 402.191 336.559 401.801 339.256 402.559C341.954 403.318 343.714 404.725 344.081 404.422C344.448 404.119 343.03 402.04 339.738 401.173C336.445 400.307 333.811 401.466 334.026 401.801Z" fill="#14121A"/>
<path d="M325.238 407.693C325.238 408.105 327.492 408.3 329.607 409.61C331.722 410.921 332.76 412.588 333.216 412.458C333.672 412.329 333.216 410.022 330.57 408.43C327.923 406.837 325.074 407.314 325.238 407.693Z" fill="#14121A"/>
<path d="M322.819 419.249C323.263 419.249 323.275 417.083 321.376 415.199C319.476 413.314 317.032 412.946 316.931 413.325C316.83 413.704 318.565 414.549 320.097 416.13C321.629 417.711 322.338 419.314 322.819 419.249Z" fill="#14121A"/>
<path d="M331.772 392.011C332.076 392.325 334.039 391.274 336.711 390.808C339.383 390.343 341.663 390.559 341.776 390.169C341.89 389.78 339.472 388.816 336.331 389.401C333.191 389.985 331.443 391.751 331.772 392.011Z" fill="#14121A"/>
<g opacity="0.3">
<path d="M387.833 395.714L383.464 380.996L387.821 379.263L361.202 317.28L356.124 321.06L377.044 377.833L382.337 394.61L387.833 395.714Z" fill="#14121A"/>
</g>
<path d="M326.504 247.24C321.34 246.292 316 246.292 310.835 247.238C305.671 248.185 300.8 250.057 296.543 252.731C289.401 257.323 283.436 264.644 285.361 276.244C289.654 301.944 328.062 389.682 328.062 389.682L381.248 376.014C381.552 375.938 381.856 375.191 381.692 375.418C381.248 376.014 354.731 302.93 355.402 303.786C356.074 304.641 409.019 341.216 431.016 347.93C453.607 354.84 475.958 346.577 486.735 333.71C491.889 327.548 503.767 294.98 480.226 268.099L436.233 275.182C436.233 275.182 332.051 248.583 330.506 248.106C329.194 247.747 327.858 247.458 326.504 247.24Z" fill="#14121A"/>
<path d="M488.748 332.811C488.748 332.811 488.545 333.115 488.102 333.678C487.442 334.516 486.723 335.319 485.949 336.082C482.896 338.996 479.369 341.52 475.477 343.577C469.304 346.962 462.38 349.218 455.139 350.205C450.589 350.838 445.955 350.892 441.387 350.368C436.222 349.83 431.202 348.541 426.545 346.555C424.013 345.635 421.632 344.389 419.074 343.306C416.516 342.223 414.009 340.848 411.476 339.472C406.411 336.775 401.143 333.851 395.824 330.667C385.161 324.342 373.967 317.205 362.38 309.32L358.036 306.309L355.858 304.75L355.288 304.306L354.997 304.067C355.187 304.067 354.491 303.873 355.39 304.176C356.086 303.548 355.58 303.862 355.744 303.797V303.927L356.124 305.075L359.543 314.519C361.89 320.887 364.3 327.407 366.774 334.079C371.738 347.411 376.905 361.328 382.299 375.722L382.451 376.144L381.97 376.274L328.138 390.126L327.669 390.245L327.505 389.855C324.073 381.982 320.502 373.61 316.944 365.108C309.232 346.696 301.912 328.544 295.416 310.891C292.174 302.075 289.16 293.356 286.754 284.681C286.463 283.598 286.121 282.515 285.868 281.432C285.614 280.349 285.399 279.266 285.171 278.183C284.644 276.017 284.393 273.809 284.424 271.598C284.427 267.193 285.908 262.882 288.692 259.175C294.314 251.908 303.761 247.641 313.132 246.536C317.773 245.981 322.493 246.154 327.062 247.045L330.43 247.771L333.659 248.594L340.067 250.229L387.289 262.208L455.431 279.667L473.944 284.464L478.744 285.732C479.833 286.024 480.378 286.186 480.378 286.186C480.378 286.186 479.808 286.078 478.719 285.818L473.881 284.638L455.291 280.046L387.036 262.847L339.902 250.933L333.495 249.32L330.253 248.497L326.998 247.803C322.524 246.934 317.902 246.772 313.36 247.327C304.217 248.41 294.998 252.612 289.591 259.63C286.913 263.209 285.494 267.371 285.5 271.62C285.469 273.784 285.715 275.945 286.235 278.064C286.475 279.147 286.703 280.23 286.931 281.313C287.159 282.396 287.526 283.479 287.818 284.562C290.224 293.226 293.238 301.891 296.492 310.696C302.95 328.328 310.295 346.436 318.02 364.848C321.578 373.339 325.149 381.722 328.569 389.585L327.923 389.314L381.768 375.483L381.426 376.036C376.082 361.631 370.902 347.703 365.951 334.371L358.733 314.703C357.58 311.519 356.453 308.367 355.326 305.248L354.946 304.067V303.894C355.098 303.786 354.567 304.035 355.288 303.385C356.225 303.721 355.58 303.504 355.808 303.591L356.048 303.764L356.517 304.132L358.669 305.681L363 308.692C374.549 316.587 385.706 323.746 396.343 330.093C401.636 333.277 406.854 336.212 411.919 338.92C414.452 340.295 416.984 341.508 419.441 342.765C421.898 344.021 424.367 345.115 426.862 346.014C431.452 347.999 436.409 349.293 441.514 349.837C446.028 350.376 450.611 350.343 455.114 349.739C462.317 348.782 469.213 346.57 475.375 343.241C479.26 341.218 482.801 338.747 485.899 335.898C486.681 335.148 487.416 334.364 488.102 333.548C488.495 333.115 488.748 332.811 488.748 332.811Z" fill="#626166"/>
<path d="M331.051 283.663C332.624 284.174 334.11 284.862 335.47 285.71C338.872 287.591 342.061 289.741 344.993 292.132C347.941 294.519 350.585 297.165 352.882 300.027C353.904 301.175 354.731 302.44 355.339 303.786C354.232 302.717 353.212 301.584 352.287 300.396C349.848 297.695 347.168 295.161 344.271 292.814C341.368 290.461 338.289 288.272 335.052 286.262C333.644 285.483 332.307 284.614 331.051 283.663Z" fill="#14121A"/>
<path d="M349.197 278.594C350.017 279.655 350.664 280.807 351.122 282.017C352.423 284.864 353.465 287.794 354.237 290.778C355.022 293.758 355.53 296.785 355.757 299.833C355.962 301.094 355.962 302.373 355.757 303.634C355.428 303.634 355.086 297.883 353.224 290.973C351.363 284.064 348.894 278.703 349.197 278.594Z" fill="#14121A"/>
<path d="M309.118 227.691C307.474 226.136 305.222 225.15 302.786 224.918L275.307 220.976L246.181 209.225L234.961 219.731L262.542 230.409C263.911 231.098 265.035 232.094 265.791 233.288C266.548 234.483 266.909 235.832 266.835 237.189C266.835 242.28 267.354 250.002 270.874 253.11C280.461 261.601 292.136 263.626 297.468 262.327C302.799 261.027 315.893 253.543 315.538 245.388C315.336 238.89 313.575 231.861 309.118 227.691ZM305.319 247.305C303.483 249.663 300.863 251.496 297.797 252.569C293.2 254.356 288.021 255.038 283.335 253.489C280.8 252.59 278.584 251.138 276.911 249.277C275.238 247.417 274.165 245.213 273.8 242.886C273.501 241.158 273.709 239.394 274.407 237.752C274.787 235.586 276.51 233.225 278.51 232.586C280.595 231.914 282.82 231.619 285.045 231.72C289.256 231.98 293.44 232.491 297.569 233.247C301.013 233.929 304.762 235.196 306.433 238.381C307.061 239.844 307.282 241.413 307.078 242.962C306.873 244.511 306.249 245.998 305.256 247.305H305.319Z" fill="#FB8500"/>
<path d="M323.326 161.041C323.326 161.041 313.309 150.654 308.51 148.748C303.71 146.842 283.006 146.831 283.006 146.831C283.006 146.831 279.662 150.167 284.449 152.073C289.236 153.979 296.593 153.308 299.379 155.03C302.165 156.752 301.165 163.976 308.066 167.409C310.04 168.419 312.228 169.082 314.505 169.361C316.781 169.64 319.1 169.529 321.325 169.033L323.326 161.041Z" fill="#FCAE55"/>
<path d="M248.245 186.536C246.104 186.536 137.959 216.98 137.959 216.98L141.378 220.283C148.457 227.117 158.347 229.933 167.819 227.789L238.203 212.215L245.205 204.395L244.838 201.254L257.033 196.37L248.245 186.536Z" fill="#CCD6DA"/>
<path d="M248.245 186.536C248.245 186.536 248.447 186.731 248.84 187.153L250.524 189.07C252.044 190.76 254.26 193.207 257.122 196.348L257.236 196.478L257.058 196.543L244.876 201.471L244.99 201.298C245.117 202.251 245.243 203.323 245.383 204.428V204.503V204.557L238.405 212.399V212.453H238.329L198.921 221.226L175.81 226.305L169.782 227.637C167.743 228.169 165.648 228.532 163.527 228.72C159.176 229.022 154.81 228.342 150.863 226.749C148.174 225.685 145.699 224.263 143.531 222.536C141.378 220.836 139.605 218.94 137.756 217.197L137.415 216.872L137.896 216.742C169.01 208.002 196.553 200.344 216.409 194.918C226.312 192.211 234.264 190.066 239.76 188.626C242.508 187.9 244.648 187.37 246.092 187.012C246.801 186.828 247.358 186.731 247.764 186.655L248.321 186.568L247.751 186.709C247.384 186.806 246.839 186.915 246.117 187.12L239.786 188.821L216.498 195.319L138.06 217.229L138.2 216.774C140.061 218.529 141.847 220.435 143.936 222.081C146.055 223.77 148.474 225.159 151.104 226.197C154.965 227.752 159.234 228.416 163.489 228.124C165.567 227.938 167.623 227.593 169.63 227.096L175.658 225.763L198.693 220.673L238.139 212.009L238.013 212.085L245.041 204.276V204.395C244.914 203.312 244.8 202.229 244.686 201.265V201.146H244.813L257.033 196.305V196.5L250.524 189.135L248.853 187.207L248.245 186.536Z" fill="#14121A"/>
<path d="M408.411 142.38C408.411 142.38 390.974 138.914 384.351 144.925C377.728 150.936 355.934 198.146 355.934 198.146L323.339 161.041L310.042 179.117C310.042 179.117 331.76 218.539 340.915 227.756C344.637 231.546 349.559 234.336 355.089 235.79C360.62 237.244 366.525 237.302 372.093 235.955C378.526 234.33 386.998 220.251 386.998 220.251L408.411 142.38Z" fill="#FCAE55"/>
<path d="M301.241 153.091C296.062 151.293 284.259 152.182 273.939 159.72C270.14 162.47 268.569 169.792 268.151 174.882C268.125 176.163 267.657 177.409 266.805 178.463C265.954 179.517 264.757 180.333 263.365 180.806L234.239 190.305L248.08 199.976L275.395 190.868H303.115C305.529 190.866 307.854 190.093 309.637 188.702C314.449 184.976 316.842 178.164 317.703 171.709C318.792 163.618 306.42 154.889 301.241 153.091ZM307.839 177.774C305.914 180.774 302.064 181.684 298.582 182.03C294.374 182.391 290.143 182.496 285.918 182.344C283.681 182.235 281.495 181.73 279.498 180.861C277.56 180.027 276.066 177.471 275.889 175.326C275.342 173.641 275.294 171.865 275.749 170.16C276.308 167.895 277.575 165.803 279.415 164.105C281.255 162.408 283.599 161.169 286.197 160.521C291.009 159.438 296.1 160.608 300.519 162.828C303.481 164.194 305.914 166.268 307.522 168.795C308.382 170.169 308.859 171.695 308.914 173.253C308.969 174.811 308.601 176.358 307.839 177.774Z" fill="#FB8500"/>
<path d="M481.556 250.879L478.732 233.28L486.152 173.712C491.572 138.167 449.15 131.593 449.15 131.593C447.782 133.456 407.867 153.394 402.878 135.167C400.472 135.827 384.491 140.344 377.994 145.488C370.941 151.055 353.402 189.947 353.402 189.947L366.863 204.579C371.865 220.543 383.756 246.233 383.756 246.233L373.169 254.811C421.594 287.573 462.143 276.471 477.82 269.973C479.737 269.186 481.416 268.03 482.726 266.597C484.037 265.164 484.943 263.492 485.374 261.71C485.805 259.929 485.75 258.086 485.213 256.326C484.676 254.566 483.671 252.936 482.277 251.561C482.051 251.323 481.81 251.096 481.556 250.879Z" fill="#CCD6DA"/>
<path d="M481.555 250.879C482.18 251.378 482.745 251.929 483.24 252.525C484.701 254.268 485.553 256.33 485.696 258.471C485.825 260.038 485.584 261.611 484.987 263.096C484.283 264.885 483.089 266.504 481.505 267.818C481.078 268.185 480.616 268.522 480.125 268.825L479.365 269.302L478.542 269.702C477.427 270.266 476.212 270.666 474.996 271.175C473.78 271.684 472.463 272.064 471.121 272.54C469.779 273.017 468.36 273.363 466.929 273.796C452.92 277.569 438.036 278.314 423.608 275.962C414.804 274.416 406.255 271.95 398.154 268.619L391.759 265.782C390.677 265.297 389.625 264.766 388.606 264.19L385.453 262.511L382.224 260.789C381.185 260.193 380.185 259.533 379.146 258.894L372.929 254.995L372.663 254.821L372.916 254.627L383.49 246.038L383.427 246.32C380.476 239.897 377.526 233.193 374.638 226.251C371.751 219.308 368.902 212.106 366.508 204.59V204.687L353.098 190.153L352.984 190.034L353.047 189.882C357.251 180.72 361.836 171.146 366.977 161.571C368.775 158.322 370.599 155.073 372.599 151.824C373.605 150.239 374.704 148.699 375.892 147.21C376.175 146.823 376.501 146.46 376.867 146.127C377.202 145.774 377.562 145.437 377.943 145.12L379.21 144.254L380.476 143.474C383.936 141.538 387.604 139.888 391.43 138.546C395.178 137.174 398.977 135.954 402.827 134.885L403.156 134.799L403.245 135.091C403.718 136.995 404.848 138.734 406.487 140.084C408.212 141.318 410.319 142.097 412.553 142.326C417.02 142.682 421.526 142.243 425.786 141.037C429.996 139.966 434.096 138.601 438.044 136.954C439.994 136.142 441.843 135.297 443.768 134.398C444.692 133.943 445.617 133.477 446.503 132.99C447.381 132.551 448.2 132.031 448.947 131.441L449.112 131.29H449.251C456.725 132.721 463.785 135.429 470.006 139.25C475.91 142.82 480.582 147.683 483.531 153.329C484.872 156.028 485.816 158.858 486.342 161.756C486.787 164.547 486.918 167.369 486.735 170.182C486.178 175.683 485.468 180.893 484.823 185.907C482.29 205.9 480.238 222.081 478.807 233.312C479.694 238.966 480.378 243.363 480.834 246.309C481.062 247.803 481.239 248.941 481.353 249.72C481.467 250.5 481.505 250.879 481.505 250.879C481.505 250.879 481.429 250.5 481.29 249.742C481.15 248.984 480.973 247.836 480.72 246.363C480.226 243.363 479.453 238.966 478.554 233.301C479.935 222.07 481.91 205.879 484.354 185.875C484.949 180.871 485.684 175.619 486.228 170.171C486.407 167.386 486.272 164.594 485.823 161.831C485.302 158.973 484.362 156.182 483.024 153.524C480.093 147.95 475.46 143.154 469.614 139.64C463.438 135.895 456.444 133.25 449.048 131.864L449.352 131.744C448.982 132.109 448.556 132.43 448.086 132.698C447.643 132.957 447.2 133.217 446.744 133.466C445.845 133.965 444.92 134.42 443.983 134.885C442.109 135.795 440.188 136.654 438.221 137.463C434.243 139.121 430.114 140.501 425.874 141.589C421.526 142.826 416.924 143.272 412.363 142.9C410.006 142.659 407.784 141.834 405.968 140.528C404.227 139.105 403.027 137.267 402.523 135.253L402.941 135.448C399.142 136.531 395.343 137.723 391.62 139.087C387.84 140.417 384.215 142.049 380.793 143.961C377.196 145.792 375.246 149.019 373.195 152.116C371.143 155.214 369.396 158.517 367.585 161.799C362.519 171.351 357.885 180.925 353.655 190.077V189.806L367.116 204.427V204.482C369.497 211.933 372.346 219.114 375.221 226.056C378.095 232.998 381.033 239.702 383.971 246.114L384.035 246.276L383.895 246.395L373.359 254.984V254.605L379.539 258.493C380.565 259.132 381.565 259.793 382.604 260.388L385.769 262.089L388.897 263.757C389.948 264.298 390.949 264.905 392.038 265.349L398.37 268.186C406.431 271.51 414.936 273.979 423.696 275.54C438.046 277.928 452.863 277.243 466.828 273.547C468.259 273.125 469.652 272.735 471.007 272.313C472.362 271.89 473.628 271.424 474.869 270.97C476.11 270.515 477.313 270.071 478.402 269.529L479.213 269.139L479.96 268.674C480.445 268.381 480.899 268.051 481.315 267.688C482.886 266.405 484.075 264.819 484.785 263.063C485.37 261.602 485.62 260.057 485.519 258.515C485.391 256.395 484.575 254.347 483.164 252.601C482.645 252.038 482.303 251.583 481.986 251.323L481.555 250.879Z" fill="#14121A"/>
<path d="M386.212 152.42C385.836 153.108 385.413 153.777 384.946 154.424C384.072 155.702 382.907 157.597 381.628 160.001C380.349 162.406 378.981 165.341 377.576 168.666C376.17 171.991 374.714 175.597 373.03 179.377C371.345 183.157 369.826 186.774 368.749 190.142C367.749 193.11 367.112 196.159 366.85 199.24C366.68 201.318 366.817 203.407 367.255 205.457C367.584 206.897 367.876 207.688 367.812 207.698C367.694 207.527 367.609 207.34 367.559 207.146C367.328 206.609 367.142 206.059 367.002 205.5C366.464 203.443 366.26 201.333 366.394 199.229C366.581 196.11 367.175 193.018 368.167 190.012C369.366 186.342 370.787 182.727 372.422 179.182L377.006 168.481C378.45 165.232 379.855 162.276 381.21 159.882C382.251 157.983 383.422 156.139 384.718 154.359C385.174 153.72 385.579 153.276 385.832 152.94C385.935 152.755 386.063 152.58 386.212 152.42Z" fill="#14121A"/>
<path d="M335.572 234.373C335.572 234.373 319.109 227.236 314.994 224.745C311.99 223.047 308.538 222.016 304.951 221.745C304.217 221.745 293.326 221.02 291.148 224.03L302.773 228.991C302.773 228.991 296.112 230.962 294.897 230.648C293.681 230.334 282.676 227.334 280.866 228.687C279.055 230.041 277.712 231.688 279.599 233.55C281.486 235.413 287.337 236.345 287.337 236.345C287.337 236.345 287.944 242.041 292.402 243.796C291.933 244.573 291.821 245.472 292.088 246.316C292.355 247.16 292.982 247.887 293.846 248.356C293.846 248.356 299.544 254.258 302.444 255.699C305.344 257.139 304.255 256.424 310.916 255.699C317.577 254.973 323.579 251.15 327.86 251.464C332.14 251.778 335.572 234.373 335.572 234.373Z" fill="#FCAE55"/>
<path d="M279.055 164.495C279.055 164.495 278.776 169.911 281.347 170.81C283.917 171.709 285.665 170.322 287.273 167.81C287.273 167.81 288.084 171.286 293.605 170.853C293.605 170.853 295.745 175.716 298.987 174.048C298.987 174.048 300.608 180.784 305.851 174.979C311.093 169.174 311.726 162.817 310.739 161.907C309.751 160.997 309.308 161.03 309.308 161.03C309.308 161.03 312.068 156.968 310.067 155.019C308.067 153.069 304.711 156.199 304.711 156.199C304.711 156.199 305.851 153.275 303.926 152.3C302.001 151.326 299.721 152.17 297.86 154.196C295.327 156.936 293.858 158.658 293.858 158.658C293.858 158.658 295.859 154.77 292.795 154.228C289.185 153.589 279.055 164.495 279.055 164.495Z" fill="#FCAE55"/>
<path d="M279.055 164.496C279.122 164.378 279.207 164.269 279.308 164.171L280.106 163.293C280.828 162.525 281.892 161.42 283.335 160.044C285.062 158.369 286.951 156.822 288.983 155.42C289.615 155.002 290.293 154.639 291.009 154.337C291.409 154.172 291.836 154.062 292.276 154.012C292.744 153.977 293.213 154.068 293.618 154.272C294.028 154.492 294.355 154.808 294.562 155.182C294.768 155.556 294.845 155.973 294.783 156.384C294.725 157.196 294.507 157.994 294.137 158.745L293.669 158.517C294.504 157.575 295.378 156.611 296.265 155.604C297.119 154.504 298.137 153.503 299.291 152.625C299.939 152.173 300.703 151.857 301.52 151.705C302.385 151.552 303.286 151.676 304.053 152.051C304.457 152.259 304.786 152.559 305.002 152.918C305.194 153.258 305.31 153.625 305.344 154.001C305.394 154.759 305.282 155.519 305.015 156.243L304.471 155.972C305.251 155.241 306.205 154.661 307.269 154.272C307.853 154.059 308.501 154.013 309.118 154.142C309.744 154.309 310.276 154.668 310.612 155.149C311.175 156.11 311.284 157.219 310.916 158.246C310.627 159.257 310.18 160.23 309.587 161.138L309.27 160.716C309.565 160.728 309.849 160.819 310.08 160.976C310.28 161.095 310.466 161.229 310.638 161.376L310.979 161.669C311.104 161.801 311.198 161.951 311.258 162.113C311.352 162.385 311.411 162.664 311.435 162.947C311.472 163.482 311.451 164.018 311.372 164.55C311.231 165.588 310.985 166.613 310.638 167.615C309.951 169.542 308.971 171.385 307.725 173.095C307.128 173.924 306.463 174.717 305.737 175.467C305.05 176.25 304.162 176.887 303.141 177.33C302.585 177.546 301.959 177.592 301.368 177.46C300.814 177.284 300.333 176.971 299.988 176.561C299.361 175.814 298.93 174.961 298.721 174.059L299.152 174.221C298.528 174.552 297.778 174.661 297.062 174.525C296.393 174.372 295.79 174.056 295.328 173.615C294.483 172.816 293.818 171.891 293.365 170.886L293.643 171.037C292.21 171.185 290.757 170.97 289.464 170.42C288.878 170.147 288.364 169.775 287.952 169.327C287.54 168.878 287.241 168.361 287.071 167.81L287.476 167.864C286.93 168.772 286.216 169.599 285.361 170.312C284.972 170.642 284.499 170.892 283.978 171.04C283.457 171.189 282.904 171.232 282.36 171.167C281.874 171.112 281.408 170.968 280.993 170.745C280.603 170.534 280.281 170.244 280.055 169.9C279.684 169.323 279.427 168.697 279.296 168.048C279.094 167.171 278.996 166.278 279.004 165.384C279.004 165.07 279.004 164.842 279.004 164.691C279.004 164.539 279.004 164.452 279.004 164.452C279.045 164.758 279.066 165.065 279.068 165.373C279.115 166.258 279.251 167.139 279.473 168.005C279.618 168.625 279.879 169.221 280.245 169.77C280.471 170.079 280.78 170.339 281.145 170.527C281.51 170.715 281.922 170.827 282.348 170.853C282.838 170.906 283.336 170.859 283.802 170.718C284.268 170.577 284.689 170.345 285.032 170.041C285.839 169.346 286.51 168.545 287.02 167.669L287.299 167.247L287.438 167.723C287.603 168.217 287.884 168.676 288.263 169.075C288.641 169.473 289.11 169.802 289.642 170.041C290.856 170.572 292.225 170.786 293.58 170.658H293.77L293.846 170.821C294.279 171.762 294.915 172.625 295.72 173.366C296.108 173.738 296.614 174.005 297.176 174.135C297.746 174.236 298.34 174.147 298.835 173.886L299.177 173.723L299.279 174.048C299.483 174.871 299.884 175.649 300.456 176.333C300.735 176.658 301.118 176.906 301.558 177.048C301.774 177.091 302 177.091 302.216 177.048C302.454 177.04 302.688 176.988 302.9 176.896C303.828 176.478 304.633 175.885 305.256 175.164C305.957 174.432 306.6 173.662 307.18 172.857C308.39 171.182 309.339 169.38 310.004 167.496C310.347 166.53 310.588 165.541 310.726 164.539C310.777 164.038 310.777 163.534 310.726 163.034C310.708 162.799 310.661 162.567 310.587 162.34C310.551 162.253 310.504 162.17 310.448 162.091L310.131 161.821C309.979 161.701 309.814 161.582 309.663 161.485C309.542 161.417 309.415 161.359 309.283 161.311L308.966 160.889C309.529 160.032 309.955 159.114 310.232 158.16C310.554 157.282 310.486 156.334 310.042 155.496C309.796 155.13 309.398 154.856 308.928 154.727C308.444 154.632 307.938 154.674 307.484 154.846C306.522 155.203 305.658 155.731 304.952 156.394L304.04 157.185L304.42 156.102C304.664 155.448 304.767 154.762 304.724 154.077C304.731 153.766 304.645 153.458 304.474 153.183C304.304 152.909 304.054 152.676 303.749 152.506C303.087 152.22 302.337 152.116 301.603 152.207C300.869 152.298 300.186 152.58 299.646 153.015C298.532 153.865 297.545 154.829 296.708 155.885L294.074 158.745L292.808 160.109L293.58 158.517C293.929 157.831 294.139 157.098 294.2 156.351C294.265 156.02 294.215 155.68 294.058 155.372C293.901 155.065 293.642 154.803 293.314 154.618C292.985 154.462 292.614 154.38 292.238 154.38C291.861 154.38 291.491 154.462 291.161 154.618C290.475 154.904 289.822 155.245 289.211 155.636C287.179 157.011 285.278 158.521 283.525 160.153C282.056 161.485 280.993 162.568 280.195 163.304C279.84 163.651 279.549 163.922 279.334 164.149C279.253 164.271 279.159 164.387 279.055 164.496Z" fill="#FB8500"/>
<path d="M293.858 159.015C293.153 160.606 292.257 162.13 291.186 163.564C290.27 165.102 288.973 166.45 287.387 167.517C287.248 167.409 288.97 165.698 290.604 163.272C292.237 160.846 293.681 158.918 293.858 159.015Z" fill="#FB8500"/>
<path d="M304.875 155.636C304.673 156.497 304.318 157.325 303.824 158.095C302.78 159.997 301.614 161.848 300.329 163.64C299.164 165.501 297.826 167.28 296.328 168.958C295.696 169.683 294.808 170.215 293.795 170.474C294.584 169.948 295.305 169.353 295.948 168.698C297.1 167.474 298.24 165.449 299.747 163.358C301.254 161.268 302.533 159.34 303.394 157.943C303.824 157.145 304.319 156.374 304.875 155.636Z" fill="#FB8500"/>
<path d="M310.042 159.481C309.902 160.304 309.616 161.104 309.193 161.853C307.435 165.581 304.855 168.986 301.595 171.882C300.966 172.518 300.232 173.072 299.417 173.528C299.265 173.398 302.457 170.777 305.369 166.868C308.282 162.958 309.801 159.416 310.042 159.481Z" fill="#FB8500"/>
<path d="M230.326 203.777C230.328 204.776 229.984 205.753 229.337 206.584C228.69 207.416 227.77 208.064 226.692 208.448C225.614 208.832 224.427 208.933 223.281 208.74C222.136 208.546 221.083 208.066 220.256 207.361C219.43 206.655 218.866 205.756 218.638 204.777C218.409 203.797 218.525 202.782 218.971 201.859C219.418 200.936 220.174 200.148 221.145 199.593C222.115 199.037 223.257 198.741 224.425 198.741C225.987 198.741 227.487 199.271 228.593 200.216C229.699 201.16 230.322 202.441 230.326 203.777Z" fill="#CCD6DA"/>
<path d="M230.326 203.777C230.263 203.777 230.263 203.333 230.01 202.575C229.656 201.514 228.898 200.584 227.857 199.933C227.023 199.4 226.032 199.077 224.995 198.998C223.959 198.92 222.917 199.09 221.987 199.489C221.056 199.888 220.274 200.5 219.727 201.257C219.181 202.015 218.891 202.887 218.891 203.777C218.891 204.668 219.181 205.54 219.727 206.298C220.274 207.055 221.056 207.667 221.987 208.066C222.917 208.465 223.959 208.635 224.995 208.557C226.032 208.478 227.023 208.155 227.857 207.622C228.898 206.971 229.656 206.041 230.01 204.98C230.263 204.222 230.263 203.777 230.326 203.777C230.351 203.885 230.351 203.995 230.326 204.102C230.34 204.415 230.306 204.728 230.225 205.034C229.939 206.189 229.186 207.221 228.097 207.947C227.285 208.491 226.325 208.851 225.307 208.993C224.288 209.135 223.245 209.054 222.272 208.759C221.074 208.39 220.038 207.713 219.306 206.822C218.574 205.93 218.181 204.867 218.181 203.777C218.181 202.688 218.574 201.625 219.306 200.733C220.038 199.842 221.074 199.165 222.272 198.795C223.245 198.501 224.288 198.42 225.307 198.562C226.325 198.704 227.285 199.064 228.097 199.608C229.181 200.338 229.934 201.368 230.225 202.521C230.306 202.826 230.34 203.14 230.326 203.453C230.351 203.56 230.351 203.67 230.326 203.777Z" fill="#14121A"/>
<path d="M228.236 205.662C225.314 205.036 222.73 203.572 220.917 201.514C221.044 201.406 222.513 202.521 224.526 203.68C225.804 204.282 227.043 204.944 228.236 205.662Z" fill="#14121A"/>
<path d="M227.046 200.626C227.173 200.756 225.716 201.926 224.412 203.68C223.108 205.435 222.424 207.027 222.247 206.929C222.373 205.621 222.931 204.371 223.855 203.323C224.609 202.191 225.713 201.258 227.046 200.626Z" fill="#14121A"/>
<path d="M367.496 224.009C367.382 224.009 367.103 222.449 366.445 219.958C364.758 213.446 361.886 207.2 357.935 201.449C356.415 199.283 355.402 197.929 355.466 197.875C355.786 198.128 356.067 198.416 356.301 198.731C356.821 199.294 357.568 200.149 358.328 201.243C362.535 206.934 365.444 213.255 366.901 219.872C367.179 221.139 367.357 222.178 367.433 222.893C367.501 223.262 367.523 223.636 367.496 224.009Z" fill="#FB8500"/>
<path d="M328.721 231.699L408.411 232.912C408.411 232.912 432.877 162.633 441.336 152.593C449.086 143.344 452.581 144.189 464.498 143.496C476.414 142.802 485.709 155.409 483.86 167.42C482.011 179.431 440.361 245.778 433.409 254.518C426.457 263.259 425.684 264.19 417.124 264.948C408.563 265.706 323.82 252.049 323.82 252.049L328.721 231.699Z" fill="#FCAE55"/>
<path d="M416.124 196.402L466.891 213.98C466.891 213.98 486.76 172.944 486.633 163.24C486.507 153.535 478.681 142.413 469.462 139.9C460.243 137.387 446.883 140.842 440.931 149.442C434.979 158.041 416.124 196.402 416.124 196.402Z" fill="#CCD6DA"/>
<path d="M416.124 196.402C416.124 196.402 416.187 196.229 416.339 195.893C416.491 195.557 416.744 195.048 417.035 194.42L419.771 188.788C422.164 183.915 425.672 176.875 430.155 168.211C432.409 163.878 434.878 159.156 437.753 154.131C439.128 151.485 440.857 148.984 442.907 146.68C445.252 144.322 448.163 142.424 451.442 141.113C453.131 140.421 454.901 139.884 456.722 139.51C458.578 139.103 460.481 138.874 462.396 138.828C466.393 138.616 470.365 139.504 473.729 141.362C475.431 142.317 476.973 143.464 478.314 144.774C479.698 146.082 480.928 147.504 481.986 149.019C483.057 150.555 483.98 152.164 484.747 153.828C485.506 155.516 486.087 157.26 486.481 159.037C486.765 160.36 486.93 161.7 486.975 163.044C486.975 163.716 486.861 164.398 486.811 165.059C486.723 165.717 486.596 166.372 486.431 167.019C485.861 169.619 485.013 172.12 484.177 174.601C482.454 179.528 480.542 184.261 478.617 188.821C474.755 197.951 470.842 206.42 467.22 214.056L467.119 214.272L466.866 214.186L429.977 201.287L419.682 197.734L417.01 196.792L416.124 196.456L417.099 196.76L419.834 197.68L430.155 201.189C439.019 204.233 451.682 208.565 466.992 213.807L466.638 213.926C470.272 206.345 474.16 197.821 478.035 188.691C479.947 184.131 481.834 179.409 483.569 174.503C484.405 172.045 485.24 169.554 485.798 166.998C485.912 166.359 486.114 165.72 486.178 165.07C486.241 164.42 486.317 163.781 486.329 163.131C486.282 161.819 486.121 160.513 485.848 159.221C485.46 157.473 484.888 155.759 484.139 154.099C483.389 152.467 482.483 150.891 481.429 149.387C480.402 147.901 479.202 146.507 477.845 145.228C476.535 143.955 475.037 142.834 473.387 141.893C470.133 140.101 466.297 139.24 462.434 139.434C458.721 139.541 455.075 140.301 451.72 141.665C448.51 142.933 445.659 144.781 443.363 147.08C441.352 149.355 439.653 151.819 438.297 154.423C435.435 159.405 432.928 164.171 430.699 168.438C426.166 177.102 422.607 184.088 420.138 188.94L417.162 194.485C416.833 195.103 416.579 195.568 416.402 195.936C416.225 196.305 416.124 196.402 416.124 196.402Z" fill="#14121A"/>
<path d="M417.504 244.771C417.242 244.527 417.009 244.263 416.807 243.98L414.933 241.652L408.196 232.988L408.411 233.085C400.13 233.085 389.138 233.031 377.12 232.825L343.284 232.229L333.026 232.067L330.24 232.002C329.914 232.007 329.588 231.989 329.265 231.948C329.587 231.9 329.914 231.882 330.24 231.894H333.026C335.458 231.894 338.953 231.894 343.284 231.894C351.958 231.894 363.912 232.11 377.133 232.327C389.15 232.533 400.142 232.684 408.411 232.728H408.551V232.825L415.11 241.544L416.858 243.937C417.097 244.201 417.313 244.48 417.504 244.771Z" fill="#FB8500"/>
<path d="M433.422 263.258C434.047 263.236 434.674 263.254 435.296 263.313C435.891 263.313 436.562 263.399 437.487 263.399C438.411 263.399 439.31 263.464 440.387 263.399C442.899 263.367 445.407 263.204 447.896 262.912C454 262.198 459.935 260.67 465.485 258.385C467.751 257.445 469.946 256.385 472.058 255.211C472.969 254.735 473.742 254.237 474.451 253.814C475.16 253.392 475.717 253.024 476.211 252.731C476.683 252.381 477.192 252.069 477.731 251.8C477.323 252.198 476.869 252.561 476.376 252.883C475.92 253.229 475.363 253.641 474.666 254.085C473.97 254.529 473.223 255.06 472.311 255.558C470.223 256.775 468.035 257.86 465.764 258.807C462.965 259.98 460.065 260.968 457.09 261.764C454.11 262.523 451.066 263.081 447.985 263.432C445.466 263.714 442.927 263.841 440.387 263.811C439.297 263.811 438.322 263.746 437.461 263.702C436.728 263.674 435.997 263.612 435.271 263.518C434.645 263.49 434.025 263.403 433.422 263.258Z" fill="#14121A"/>
</svg>
