<svg width="34" height="34" viewBox="0 0 34 34" fill="none" xmlns="http://www.w3.org/2000/svg">
<path d="M17.228 4.27344C12.594 4.27344 8.82798 8.03944 8.82798 12.6734V16.7194C8.82798 17.5734 8.46398 18.8754 8.02998 19.6034L6.41998 22.2774C5.42598 23.9294 6.11198 25.7634 7.93198 26.3794C13.966 28.3954 20.476 28.3954 26.51 26.3794C28.204 25.8194 28.946 23.8174 28.022 22.2774L26.412 19.6034C25.992 18.8754 25.628 17.5734 25.628 16.7194V12.6734C25.628 8.05344 21.848 4.27344 17.228 4.27344Z" stroke="#219EBC" stroke-width="1.5" stroke-miterlimit="10" stroke-linecap="round"/>
<path d="M19.8183 4.68002C19.3843 4.55402 18.9363 4.45602 18.4743 4.40002C17.1303 4.23202 15.8423 4.33002 14.6383 4.68002C15.0443 3.64402 16.0523 2.91602 17.2283 2.91602C18.4043 2.91602 19.4123 3.64402 19.8183 4.68002Z" stroke="#219EBC" stroke-width="1.5" stroke-miterlimit="10" stroke-linecap="round" stroke-linejoin="round"/>
<path d="M21.4282 26.8838C21.4282 29.1938 19.5382 31.0838 17.2282 31.0838C16.0802 31.0838 15.0162 30.6078 14.2602 29.8518C13.5042 29.0958 13.0282 28.0318 13.0282 26.8838" stroke="#219EBC" stroke-width="1.5" stroke-miterlimit="10"/>
</svg>
