<svg width="15" height="14" viewBox="0 0 15 14" fill="none" xmlns="http://www.w3.org/2000/svg">
<path fill-rule="evenodd" clip-rule="evenodd" d="M2.24939 3.5612C1.88075 3.5612 1.58191 3.86005 1.58191 4.22869V11.7935C1.58191 12.1621 1.88075 12.461 2.24939 12.461H9.81419C10.1828 12.461 10.4817 12.1621 10.4817 11.7935V8.23357C10.4817 7.86493 10.7805 7.56609 11.1491 7.56609C11.5178 7.56609 11.8166 7.86493 11.8166 8.23357V11.7935C11.8166 12.8994 10.9201 13.7959 9.81419 13.7959H2.24939C1.14347 13.7959 0.246948 12.8994 0.246948 11.7935V4.22869C0.246948 3.12277 1.14347 2.22624 2.24939 2.22624H6.69927C7.06791 2.22624 7.36675 2.52508 7.36675 2.89372C7.36675 3.26236 7.06791 3.5612 6.69927 3.5612H2.24939Z" fill="white"/>
<path fill-rule="evenodd" clip-rule="evenodd" d="M3.97937 10.0164C4.2267 10.2897 4.6488 10.3108 4.92215 10.0635L13.1516 2.61782V5.11866C13.1516 5.4873 13.4504 5.78614 13.8191 5.78614C14.1877 5.78614 14.4866 5.4873 14.4866 5.11866V1.11377C14.4866 0.745131 14.1877 0.446289 13.8191 0.446289H9.81419C9.44555 0.446289 9.1467 0.745131 9.1467 1.11377C9.1467 1.48241 9.44555 1.78125 9.81419 1.78125H12.0864L4.02651 9.07358C3.75315 9.3209 3.73205 9.743 3.97937 10.0164Z" fill="white"/>
</svg>
