<svg width="48" height="48" viewBox="0 0 48 48" fill="none" xmlns="http://www.w3.org/2000/svg">
<path d="M25.228 11.2734C20.594 11.2734 16.828 15.0394 16.828 19.6734V23.7194C16.828 24.5734 16.464 25.8754 16.03 26.6034L14.42 29.2774C13.426 30.9294 14.112 32.7634 15.932 33.3794C21.966 35.3954 28.476 35.3954 34.51 33.3794C36.204 32.8194 36.946 30.8174 36.022 29.2774L34.412 26.6034C33.992 25.8754 33.628 24.5734 33.628 23.7194V19.6734C33.628 15.0534 29.848 11.2734 25.228 11.2734Z" stroke="#219EBC" stroke-width="1.5" stroke-miterlimit="10" stroke-linecap="round"/>
<path d="M27.8183 11.68C27.3843 11.554 26.9363 11.456 26.4743 11.4C25.1303 11.232 23.8423 11.33 22.6383 11.68C23.0443 10.644 24.0523 9.91602 25.2283 9.91602C26.4043 9.91602 27.4123 10.644 27.8183 11.68Z" stroke="#219EBC" stroke-width="1.5" stroke-miterlimit="10" stroke-linecap="round" stroke-linejoin="round"/>
<path d="M29.4282 33.8838C29.4282 36.1938 27.5382 38.0838 25.2282 38.0838C24.0802 38.0838 23.0162 37.6078 22.2602 36.8518C21.5042 36.0958 21.0282 35.0318 21.0282 33.8838" stroke="#219EBC" stroke-width="1.5" stroke-miterlimit="10"/>
<circle cx="30" cy="12.0002" r="4.8" fill="#FF1212"/>
</svg>
