<svg width="588" height="360" viewBox="0 0 588 360" fill="none" xmlns="http://www.w3.org/2000/svg">
<path d="M543.247 323.698H583.66" stroke="#14121A" stroke-linecap="round" stroke-linejoin="round"/>
<path d="M31.1567 323.698H533.979" stroke="#14121A" stroke-linecap="round" stroke-linejoin="round"/>
<path d="M11.9478 323.698H23.8756" stroke="#14121A" stroke-linecap="round" stroke-linejoin="round"/>
<path d="M526.21 234.626C527.594 234.935 529.055 234.726 530.271 234.044C531.488 233.361 532.361 232.263 532.7 230.988L536.134 217.962C536.47 216.686 536.242 215.34 535.502 214.219C534.762 213.098 533.57 212.293 532.187 211.98C530.804 211.672 529.344 211.882 528.129 212.564C526.914 213.246 526.042 214.345 525.705 215.619L522.262 228.629C522.093 229.262 522.06 229.919 522.167 230.564C522.274 231.208 522.518 231.826 522.884 232.384C523.251 232.941 523.734 233.426 524.305 233.811C524.875 234.196 525.523 234.473 526.21 234.626Z" fill="white" stroke="#14121A" stroke-linecap="round" stroke-linejoin="round"/>
<path d="M531.681 249.84C532.146 249.959 532.634 249.979 533.108 249.899C533.583 249.819 534.031 249.641 534.42 249.378C534.809 249.115 535.128 248.774 535.354 248.381C535.579 247.988 535.705 247.553 535.722 247.109L537.144 230.747C537.205 229.764 536.899 228.791 536.278 227.989C535.656 227.188 534.756 226.606 533.727 226.341C533.261 226.222 532.773 226.202 532.298 226.282C531.823 226.363 531.374 226.542 530.985 226.805C530.596 227.069 530.277 227.411 530.052 227.805C529.827 228.199 529.702 228.634 529.686 229.079L528.255 245.433C528.194 246.418 528.5 247.393 529.123 248.195C529.747 248.997 530.65 249.577 531.681 249.84Z" fill="white" stroke="#14121A" stroke-linecap="round" stroke-linejoin="round"/>
<path d="M493.734 231.748L511.672 228.311C517.984 228.194 524.285 228.831 530.419 230.204L542.473 232.904C543.106 233.046 543.763 233.072 544.407 232.981C545.05 232.889 545.668 232.681 546.225 232.369C546.781 232.057 547.266 231.647 547.651 231.162C548.035 230.678 548.312 230.128 548.466 229.545L550.992 219.971C551.301 218.792 551.09 217.548 550.405 216.513C549.72 215.477 548.617 214.734 547.338 214.447L537.574 212.26C530.185 210.605 523.124 207.893 516.647 204.222L503.903 193.136L493.734 231.748Z" fill="white" stroke="#14121A" stroke-linecap="round" stroke-linejoin="round"/>
<path d="M530.84 210.413C533.062 211.127 535.31 211.747 537.574 212.26L547.322 214.447C548.601 214.734 549.704 215.477 550.389 216.513C551.074 217.548 551.284 218.792 550.975 219.971L548.45 229.545C548.296 230.128 548.019 230.678 547.634 231.162C547.249 231.647 546.765 232.057 546.208 232.369C545.652 232.681 545.034 232.889 544.39 232.981C543.746 233.072 543.089 233.046 542.456 232.904L530.402 230.204C528.898 229.863 527.377 229.568 525.84 229.32L530.84 210.413Z" fill="#14121A" stroke="#14121A" stroke-linecap="round" stroke-linejoin="round"/>
<path d="M491.346 236.484L492.09 236.651C494.226 237.13 496.38 235.923 496.9 233.954L507.403 194.183C507.924 192.214 506.613 190.229 504.477 189.749L503.732 189.582C501.596 189.103 499.442 190.311 498.922 192.28L488.419 232.051C487.899 234.02 489.209 236.005 491.346 236.484Z" fill="#3B3A40" stroke="#14121A" stroke-linecap="round" stroke-linejoin="round"/>
<path d="M484.652 196.355L488.861 202.477" stroke="#14121A" stroke-width="2" stroke-linecap="round" stroke-linejoin="round"/>
<path d="M477.875 222.027L484.66 218.373" stroke="#14121A" stroke-width="2" stroke-linecap="round" stroke-linejoin="round"/>
<path d="M485.283 210.491L477.042 208.645" stroke="#14121A" stroke-width="2" stroke-linecap="round" stroke-linejoin="round"/>
<path d="M528.314 243.564L525.427 245.829C525.089 246.1 524.851 246.461 524.745 246.861C524.677 247.112 524.664 247.373 524.706 247.629C524.748 247.885 524.845 248.131 524.99 248.352C525.136 248.574 525.327 248.766 525.554 248.919C525.781 249.072 526.038 249.182 526.311 249.243L535.427 251.291L536 243.611L528.314 243.564Z" fill="#14121A" stroke="#14121A" stroke-linecap="round" stroke-linejoin="round"/>
<path d="M543.071 220.484C543.131 220.262 543.26 220.062 543.443 219.909C543.626 219.755 543.855 219.655 544.099 219.621C544.344 219.586 544.594 219.619 544.819 219.716C545.043 219.813 545.231 219.968 545.36 220.163C545.488 220.358 545.551 220.584 545.541 220.812C545.531 221.039 545.447 221.259 545.302 221.444C545.156 221.628 544.954 221.769 544.722 221.848C544.49 221.927 544.238 221.941 543.997 221.888C543.835 221.853 543.682 221.789 543.548 221.7C543.413 221.61 543.299 221.496 543.213 221.365C543.127 221.235 543.07 221.089 543.045 220.938C543.021 220.786 543.03 220.632 543.071 220.484Z" fill="#3B3A40"/>
<path d="M489.509 270.338V260.632H492.598C493.133 260.613 493.664 260.722 494.139 260.95C494.521 261.172 494.816 261.501 494.98 261.889C495.178 262.364 495.272 262.87 495.258 263.378C495.285 263.914 495.166 264.447 494.913 264.93C494.695 265.303 494.348 265.598 493.928 265.768C493.461 265.954 492.955 266.044 492.447 266.032H491.403V270.338H489.509ZM491.428 264.79H492.16C492.449 264.808 492.738 264.76 493.002 264.651C493.099 264.607 493.185 264.545 493.255 264.469C493.324 264.393 493.376 264.304 493.406 264.209C493.49 263.944 493.527 263.669 493.516 263.394C493.524 263.107 493.495 262.821 493.431 262.541C493.411 262.44 493.369 262.345 493.307 262.261C493.244 262.177 493.163 262.105 493.069 262.052C492.807 261.938 492.518 261.884 492.228 261.897H491.495L491.428 264.79Z" fill="#14121A"/>
<path d="M496.327 270.337V260.632H498.852C499.463 260.618 500.071 260.697 500.654 260.865C501.111 260.995 501.505 261.27 501.765 261.641C502.052 262.113 502.187 262.651 502.152 263.192C502.155 263.544 502.115 263.895 502.034 264.239C501.964 264.521 501.829 264.785 501.639 265.015C501.435 265.245 501.167 265.419 500.864 265.52L502.329 270.291H500.368L499.097 265.853H498.255V270.291L496.327 270.337ZM498.255 264.79H498.844C499.15 264.804 499.455 264.754 499.736 264.643C499.954 264.543 500.122 264.371 500.208 264.162C500.316 263.892 500.364 263.604 500.351 263.316C500.38 262.933 500.28 262.551 500.065 262.222C499.922 262.087 499.748 261.984 499.555 261.921C499.362 261.858 499.157 261.836 498.953 261.858H498.255V264.79Z" fill="#14121A"/>
<path d="M506.378 270.469C505.759 270.499 505.144 270.367 504.602 270.089C504.158 269.833 503.822 269.444 503.651 268.987C503.451 268.44 503.355 267.866 503.365 267.288V263.665C503.353 263.096 503.45 262.528 503.651 261.99C503.825 261.543 504.161 261.165 504.602 260.919C505.159 260.674 505.769 260.546 506.387 260.546C507.004 260.546 507.614 260.674 508.171 260.919C508.61 261.167 508.946 261.544 509.122 261.99C509.331 262.527 509.431 263.095 509.417 263.665V267.304C509.429 267.874 509.329 268.442 509.122 268.98C508.946 269.434 508.612 269.821 508.171 270.081C507.624 270.362 507.003 270.496 506.378 270.469ZM506.378 269.166C506.632 269.186 506.885 269.117 507.085 268.972C507.244 268.833 507.351 268.651 507.388 268.452C507.441 268.212 507.466 267.968 507.464 267.723V263.262C507.467 263.017 507.441 262.773 507.388 262.533C507.35 262.336 507.244 262.157 507.085 262.021C506.876 261.899 506.634 261.835 506.387 261.835C506.139 261.835 505.897 261.899 505.688 262.021C505.527 262.156 505.418 262.335 505.377 262.533C505.323 262.773 505.298 263.017 505.301 263.262V267.723C505.299 267.968 505.324 268.212 505.377 268.452C505.407 268.653 505.515 268.837 505.68 268.972C505.877 269.116 506.127 269.185 506.378 269.166Z" fill="#14121A"/>
<path d="M510.797 270.337L510.983 260.655H512.969L514.459 267.358L516.016 260.655H517.936L518.129 270.337H516.707L516.547 263.603L515.057 270.337H513.903L512.38 263.58L512.245 270.337H510.797Z" fill="#14121A"/>
<path d="M522.54 270.469C521.921 270.499 521.306 270.367 520.764 270.089C520.322 269.832 519.989 269.443 519.821 268.987C519.618 268.441 519.521 267.866 519.535 267.288V263.665C519.518 263.095 519.615 262.527 519.821 261.989C519.992 261.543 520.325 261.165 520.764 260.919C521.308 260.647 521.922 260.518 522.54 260.546C523.166 260.516 523.79 260.645 524.342 260.919C524.778 261.167 525.11 261.545 525.284 261.989C525.493 262.527 525.593 263.095 525.579 263.665V267.304C525.591 267.874 525.491 268.442 525.284 268.979C525.112 269.433 524.78 269.821 524.342 270.081C523.792 270.363 523.168 270.497 522.54 270.469ZM522.54 269.166C522.794 269.186 523.047 269.117 523.247 268.972C523.406 268.833 523.513 268.651 523.55 268.452C523.61 268.213 523.638 267.968 523.634 267.723V263.262C523.639 263.016 523.611 262.771 523.55 262.532C523.512 262.336 523.406 262.156 523.247 262.02C523.044 261.881 522.793 261.815 522.54 261.834C522.296 261.817 522.053 261.884 521.858 262.02C521.694 262.153 521.584 262.334 521.547 262.532C521.487 262.771 521.458 263.016 521.463 263.262V267.723C521.461 267.968 521.486 268.212 521.538 268.452C521.573 268.652 521.68 268.835 521.841 268.972C522.04 269.115 522.289 269.184 522.54 269.166Z" fill="#14121A"/>
<path d="M527.995 270.337V261.958H526.311V260.632H531.547V261.935H529.863V270.314L527.995 270.337Z" fill="#14121A"/>
<path d="M532.574 270.337V260.632H534.468V270.314L532.574 270.337Z" fill="#14121A"/>
<path d="M538.938 270.469C538.319 270.496 537.704 270.364 537.162 270.089C536.719 269.833 536.386 269.444 536.219 268.988C536.015 268.441 535.918 267.866 535.933 267.289V263.665C535.916 263.095 536.013 262.527 536.219 261.99C536.39 261.543 536.723 261.165 537.162 260.919C537.72 260.674 538.331 260.546 538.95 260.546C539.569 260.546 540.18 260.674 540.739 260.919C541.175 261.168 541.508 261.545 541.682 261.99C541.891 262.527 541.99 263.095 541.976 263.665V267.304C541.988 267.874 541.889 268.442 541.682 268.98C541.509 269.433 541.177 269.821 540.739 270.081C540.19 270.363 539.566 270.498 538.938 270.469ZM538.938 269.166C539.192 269.187 539.444 269.117 539.645 268.972C539.803 268.832 539.912 268.651 539.956 268.452C540.008 268.212 540.034 267.968 540.032 267.723V263.262C540.035 263.017 540.009 262.773 539.956 262.533C539.912 262.337 539.803 262.158 539.645 262.021C539.441 261.882 539.19 261.816 538.938 261.835C538.693 261.818 538.451 261.884 538.256 262.021C538.092 262.154 537.982 262.334 537.944 262.533C537.884 262.772 537.856 263.017 537.86 263.262V267.723C537.858 267.968 537.884 268.212 537.936 268.452C537.971 268.652 538.077 268.835 538.239 268.972C538.437 269.115 538.687 269.185 538.938 269.166Z" fill="#14121A"/>
<path d="M543.391 270.337V260.632H544.729L547.254 266.156V260.632H548.837V270.314H547.591L545.066 264.526V270.314L543.391 270.337Z" fill="#14121A"/>
<path d="M541.497 131.924L537.448 129.069L532.599 125.648L519.005 116.059V116.051L518.988 116.043L518.887 115.973L504.097 125.842L499.013 129.224L494.863 132.002L504.425 85.7785L508.979 63.7764L525.798 64.1022L527.052 64.1255L528.028 64.141L532.044 84.3355L541.497 131.924Z" fill="#023047" stroke="#14121A" stroke-linecap="round" stroke-linejoin="round"/>
<path d="M532.044 84.3355C531.434 84.1491 530.779 84.1302 530.158 84.2812C529.317 84.7001 529.098 86.531 528.172 86.8569C527.246 87.1827 525.781 85.9569 524.805 86.1974C523.828 86.4379 523.256 88.1913 522.279 88.3387C521.303 88.4861 520.141 86.9888 519.148 87.0431C518.155 87.0974 517.187 88.6955 516.193 88.649C515.2 88.6025 514.384 86.9267 513.416 86.787C512.448 86.6474 511.109 88.0283 510.166 87.8034C509.224 87.5784 508.786 85.7707 507.868 85.4759C506.951 85.1811 505.343 86.2517 504.501 85.8328H504.442L508.954 63.7764L525.79 64.1022H527.044H528.02L532.044 84.3355Z" fill="#14121A" stroke="#14121A" stroke-linecap="round" stroke-linejoin="round"/>
<path d="M490.216 55.6071C490.267 54.6838 488.642 53.621 488.794 52.7288C488.945 51.8366 490.839 51.2547 491.083 50.4013C491.328 49.5479 489.989 48.1592 490.334 47.2981C490.679 46.4369 492.674 46.2585 493.112 45.4439C493.55 44.6293 492.548 43.0466 493.112 42.2863C493.676 41.526 495.637 41.7122 496.243 41.0062C496.85 40.3002 496.243 38.5547 496.925 37.903C497.607 37.2513 499.518 37.8254 500.292 37.2435C501.067 36.6617 500.831 34.8463 501.656 34.342C502.481 33.8377 504.181 34.7609 505.082 34.342C505.983 33.923 506.143 32.0921 507.069 31.7585C507.995 31.4249 509.468 32.6585 510.436 32.4179C511.404 32.1774 511.976 30.4319 512.961 30.2845C513.946 30.1371 515.099 31.6266 516.092 31.5801C517.086 31.5335 518.045 29.9276 519.047 29.9741C520.049 30.0207 520.857 31.6964 521.816 31.8283C522.776 31.9602 524.123 30.5948 525.066 30.8198C526.008 31.0448 526.446 32.8524 527.364 33.1472C528.281 33.442 529.889 32.3714 530.731 32.7903C531.573 33.2093 531.573 35.0324 532.414 35.529C533.256 36.0255 535.057 35.2574 535.823 35.8315C536.589 36.4056 536.177 38.159 536.884 38.8417C537.591 39.5244 539.527 39.0822 540.15 39.7882C540.773 40.4942 539.965 42.1699 540.512 42.9302C541.059 43.6905 543.037 43.6673 543.5 44.4819C543.963 45.2965 542.776 46.7705 543.138 47.5851C543.5 48.3997 545.453 48.7954 545.714 49.6798C545.975 50.5643 544.485 51.7745 544.645 52.6822C544.805 53.5899 546.632 54.3037 546.682 55.2192C546.733 56.1346 544.999 57.0346 544.999 57.9578C544.999 58.881 546.573 59.9439 546.43 60.8361C546.287 61.7282 544.384 62.3101 544.132 63.1635C543.879 64.0169 545.226 65.4056 544.881 66.2668C544.536 67.1279 542.549 67.3141 542.103 68.121C541.657 68.9278 542.667 70.5182 542.103 71.2863C541.539 72.0543 539.578 71.8526 538.963 72.5664C538.349 73.2801 538.963 75.0179 538.281 75.6696C537.6 76.3213 535.689 75.7472 534.914 76.3213C534.14 76.8954 534.384 78.7263 533.559 79.2229C532.734 79.7194 531.034 78.8039 530.125 79.2229C529.216 79.6418 529.064 81.465 528.138 81.7986C527.212 82.1322 525.739 80.8986 524.771 81.1391C523.803 81.3796 523.222 83.133 522.246 83.2804C521.269 83.4278 520.116 81.9305 519.123 81.9848C518.129 82.0391 517.161 83.6373 516.16 83.5907C515.158 83.5442 514.358 81.8684 513.39 81.7287C512.422 81.5891 511.084 82.9701 510.141 82.7373C509.198 82.5046 508.761 80.7124 507.843 80.4099C506.926 80.1073 505.318 81.1857 504.434 80.7745C503.55 80.3633 503.592 78.5246 502.75 78.0359C501.909 77.5471 500.107 78.2996 499.383 77.7333C498.659 77.167 499.03 75.3593 498.331 74.7231C497.632 74.087 495.679 74.4826 495.057 73.7766C494.434 73.0707 495.242 71.3949 494.695 70.6734C494.147 69.9519 492.169 69.8976 491.706 69.1218C491.243 68.3459 492.43 66.7943 492.068 65.9719C491.706 65.1496 489.762 64.7694 489.543 63.885C489.324 63.0006 490.764 61.7825 490.604 60.8826C490.444 59.9827 488.617 59.2534 488.567 58.3379C488.516 57.4225 490.174 56.5225 490.216 55.6071Z" fill="#023047" stroke="#14121A" stroke-linecap="round" stroke-linejoin="round"/>
<path d="M524.702 77.2783C536.964 73.6672 543.728 61.5782 539.81 50.2768C535.892 38.9753 522.775 32.741 510.513 36.3521C498.251 39.9632 491.487 52.0523 495.405 63.3537C499.323 74.6552 512.44 80.8894 524.702 77.2783Z" fill="#14121A" stroke="#14121A" stroke-linecap="round" stroke-linejoin="round"/>
<path d="M534.855 67.2915C541.136 58.5088 538.502 46.6961 528.973 40.9072C519.444 35.1182 506.627 37.5451 500.346 46.3279C494.065 55.1106 496.698 66.9233 506.227 72.7123C515.757 78.5012 528.573 76.0743 534.855 67.2915Z" fill="white" stroke="#14121A" stroke-linecap="round" stroke-linejoin="round"/>
<path d="M502.599 53.877L503.272 55.7855H505.452L503.685 56.9647L504.358 58.881L502.599 57.694L500.831 58.881L501.504 56.9647L499.745 55.7855H501.925L502.599 53.877Z" fill="#023047" stroke="#14121A" stroke-width="0.5" stroke-linecap="round" stroke-linejoin="round"/>
<path d="M510.073 53.877L510.747 55.7855H512.927L511.168 56.9647L511.833 58.881L510.073 57.694L508.314 58.881L508.987 56.9647L507.22 55.7855H509.4L510.073 53.877Z" fill="#023047" stroke="#14121A" stroke-width="0.5" stroke-linecap="round" stroke-linejoin="round"/>
<path d="M517.548 53.877L518.222 55.7855H520.402L518.643 56.9647L519.316 58.881L517.548 57.694L515.789 58.881L516.462 56.9647L514.703 55.7855H516.875L517.548 53.877Z" fill="#023047" stroke="#14121A" stroke-width="0.5" stroke-linecap="round" stroke-linejoin="round"/>
<path d="M525.032 53.877L525.705 55.7855H527.885L526.118 56.9647L526.791 58.881L525.032 57.694L523.264 58.881L523.937 56.9647L522.178 55.7855H524.358L525.032 53.877Z" fill="#023047" stroke="#14121A" stroke-width="0.5" stroke-linecap="round" stroke-linejoin="round"/>
<path d="M532.507 53.877L533.18 55.7855H535.36L533.593 56.9647L534.275 58.881L532.507 57.694L530.748 58.881L531.421 56.9647L529.653 55.7855H531.833L532.507 53.877Z" fill="#023047" stroke="#14121A" stroke-width="0.5" stroke-linecap="round" stroke-linejoin="round"/>
<path d="M504.038 152.793C503.786 152.68 503.551 152.536 503.339 152.367C503.084 152.164 502.842 151.946 502.615 151.715C502.392 151.488 502.187 151.247 502.001 150.993H501.765C501.146 151.023 500.531 150.891 499.989 150.613C499.547 150.357 499.214 149.968 499.046 149.512C498.843 148.965 498.746 148.39 498.76 147.813V144.259C498.743 143.689 498.84 143.121 499.046 142.584C499.218 142.137 499.55 141.759 499.989 141.513C500.533 141.241 501.147 141.112 501.765 141.141C502.391 141.11 503.015 141.239 503.567 141.513C504.007 141.759 504.343 142.137 504.518 142.584C504.724 143.121 504.821 143.689 504.804 144.259V147.898C504.807 148.321 504.759 148.742 504.661 149.155C504.579 149.505 504.418 149.835 504.19 150.125C503.975 150.404 503.685 150.626 503.348 150.768L503.693 151.11L504.055 151.451C504.165 151.542 504.284 151.625 504.408 151.699L504.038 152.793ZM501.765 149.69C501.884 149.707 502.005 149.701 502.121 149.674C502.237 149.647 502.346 149.598 502.441 149.532C502.537 149.466 502.617 149.382 502.678 149.287C502.738 149.191 502.777 149.086 502.792 148.976C502.844 148.736 502.87 148.492 502.868 148.247V143.786C502.871 143.541 502.845 143.297 502.792 143.057C502.751 142.86 502.642 142.68 502.481 142.545C502.273 142.407 502.02 142.341 501.765 142.359C501.516 142.341 501.267 142.407 501.067 142.545C500.902 142.677 500.795 142.858 500.764 143.057C500.711 143.297 500.685 143.541 500.688 143.786V148.247C500.686 148.492 500.711 148.736 500.764 148.976C500.797 149.179 500.903 149.365 501.067 149.504C501.267 149.642 501.516 149.708 501.765 149.69Z" fill="#14121A"/>
<path d="M509.106 151.025C508.473 151.058 507.844 150.92 507.296 150.629C506.86 150.365 506.54 149.966 506.395 149.504C506.221 148.936 506.139 148.348 506.151 147.758V141.21H508.02V147.968C508.02 148.253 508.043 148.539 508.087 148.821C508.116 149.059 508.222 149.283 508.39 149.465C508.483 149.551 508.595 149.618 508.719 149.661C508.842 149.704 508.974 149.722 509.106 149.713C509.241 149.725 509.378 149.708 509.506 149.666C509.634 149.623 509.75 149.554 509.846 149.465C510.006 149.279 510.107 149.056 510.141 148.821C510.193 148.539 510.218 148.254 510.217 147.968V141.21H512.069V147.758C512.081 148.348 511.999 148.936 511.825 149.504C511.68 149.964 511.364 150.362 510.932 150.629C510.378 150.922 509.743 151.06 509.106 151.025Z" fill="#14121A"/>
<path d="M512.986 150.893L515.09 141.21H517.136L519.24 150.893H517.464L517.052 148.658H515.217L514.787 150.893H512.986ZM515.41 147.533H516.841L516.126 143.468L515.41 147.533Z" fill="#14121A"/>
<path d="M520.242 150.893V141.21H522.161V149.69H524.687V150.908L520.242 150.893Z" fill="#14121A"/>
<path d="M525.705 150.893V141.21H527.599V150.893H525.705Z" fill="#14121A"/>
<path d="M530.268 150.893V142.514H528.584V141.21H533.828V142.514H532.145V150.893H530.268Z" fill="#14121A"/>
<path d="M536.261 150.893V147.2L534.131 141.21H535.891L537.187 145.09L538.408 141.21H540.158L538.054 147.2V150.893H536.261Z" fill="#14121A"/>
<path d="M328.815 22.5265L331.416 40.0909L319.286 42.752C315.96 44.8277 312.487 46.6964 308.89 48.3456C303.974 50.4713 300.515 51.2704 298.789 51.2704C297.063 51.2704 290.7 48.8732 290.7 48.8732C290.7 48.8732 295.035 27.3133 299.959 24.916C304.884 22.5187 317.822 19.0664 328.815 22.5265Z" fill="white" stroke="#14121A" stroke-linecap="round" stroke-linejoin="round"/>
<path d="M267.131 21.9134C267.131 21.9134 288.815 20.6411 291.988 20.6411C295.162 20.6411 302.224 27.8872 302.224 27.8872C302.224 27.8872 315.154 47.7248 314.068 48.9118C311.34 51.8909 309.16 49.7342 309.16 49.7342L308.664 51.8289C308.664 51.8289 306.559 54.2339 295.877 52.9073C285.195 51.5806 281.727 48.6092 279.151 48.0584C276.575 47.5076 262.543 43.9233 262.543 43.9233L267.131 21.9134Z" fill="white" stroke="#14121A" stroke-linecap="round" stroke-linejoin="round"/>
<path d="M309.16 49.6953L305.591 43.3491" stroke="#14121A" stroke-linecap="round" stroke-linejoin="round"/>
<path d="M305.591 52.6359L301.163 45.6147" stroke="#14121A" stroke-linecap="round" stroke-linejoin="round"/>
<path d="M322.729 24.1167C322.729 24.1167 301.037 17.9955 296.744 22.2547C292.451 26.5139 283.166 37.6934 285.187 39.0278C287.207 40.3622 294.446 35.2962 296.13 34.2333C297.403 33.3834 298.566 32.402 299.598 31.3085C301.61 33.1398 304.111 34.4487 306.849 35.1026C309.587 35.7565 312.463 35.7323 315.187 35.0324" fill="white"/>
<path d="M322.729 24.1167C322.729 24.1167 301.037 17.9955 296.744 22.2547C292.451 26.5139 283.166 37.6934 285.187 39.0278C287.207 40.3622 294.446 35.2962 296.13 34.2333C297.403 33.3834 298.566 32.402 299.598 31.3085C301.61 33.1398 304.111 34.4487 306.849 35.1026C309.587 35.7565 312.463 35.7323 315.187 35.0324" stroke="#14121A" stroke-linecap="round" stroke-linejoin="round"/>
<path d="M298.907 45.2344C298.907 45.2344 296.828 52.0771 297.67 53.2408C297.984 53.7277 298.463 54.1056 299.034 54.316C299.605 54.5263 300.235 54.5575 300.827 54.4045C301.537 54.1347 302.183 53.7393 302.729 53.2408C302.729 53.2408 303.04 47.4222 302.098 45.9637C301.155 44.5051 300.33 43.4888 298.907 45.2344Z" fill="white" stroke="#14121A" stroke-linecap="round" stroke-linejoin="round"/>
<path d="M293.377 46.1113C293.377 46.1113 291.323 52.954 292.114 54.1177C292.43 54.6052 292.911 54.9834 293.483 55.1937C294.055 55.404 294.686 55.4349 295.279 55.2814C295.984 55.0062 296.626 54.6115 297.173 54.1177C297.173 54.1177 297.484 48.2913 296.542 46.8405C295.599 45.3898 294.799 44.3657 293.377 46.1113Z" fill="white" stroke="#14121A" stroke-linecap="round" stroke-linejoin="round"/>
<path d="M287.821 46.3517C287.821 46.3517 286.247 51.604 286.853 52.4962C287.092 52.866 287.456 53.1535 287.89 53.3146C288.323 53.4757 288.802 53.5016 289.252 53.3883C289.795 53.1801 290.29 52.8772 290.709 52.4962C290.709 52.4962 290.953 48.0275 290.229 46.9103C289.505 45.7931 288.907 45.0173 287.821 46.3517Z" fill="white" stroke="#14121A" stroke-linecap="round" stroke-linejoin="round"/>
<path d="M281.264 46.5765C281.264 46.5765 280.026 50.0522 280.506 50.6418C280.727 50.899 281.025 51.0915 281.363 51.1962C281.7 51.3008 282.063 51.313 282.408 51.2314C282.825 51.0995 283.213 50.8998 283.553 50.6418C283.553 50.6418 283.747 47.686 283.174 46.9489C282.602 46.2119 282.122 45.7309 281.264 46.5765Z" fill="white" stroke="#14121A" stroke-linecap="round" stroke-linejoin="round"/>
<path d="M332.687 17.1078L324.481 18.6919L331.186 48.1921L339.392 46.608L332.687 17.1078Z" fill="white" stroke="#14121A" stroke-linecap="round" stroke-linejoin="round"/>
<path d="M343.279 14.6708L330.146 17.2061L337.626 50.1157L350.758 47.5805L343.279 14.6708Z" fill="#219EBC" stroke="#14121A" stroke-linecap="round" stroke-linejoin="round"/>
<path d="M257.284 46.6078L265.49 48.1919L272.194 18.6917L263.988 17.1075L257.284 46.6078Z" fill="white" stroke="#14121A" stroke-linecap="round" stroke-linejoin="round"/>
<path d="M245.92 47.5795L259.053 50.1147L266.532 17.2051L253.399 14.6698L245.92 47.5795Z" fill="#14121A" stroke="#14121A" stroke-linecap="round" stroke-linejoin="round"/>
<path d="M253.056 70.7121C252.421 70.7452 251.79 70.5991 251.247 70.2932C250.813 70.0168 250.49 69.6158 250.329 69.1527C250.149 68.6125 250.061 68.0498 250.068 67.4847V64.0246C250.059 63.4416 250.147 62.8607 250.329 62.3023C250.486 61.8413 250.81 61.4441 251.247 61.1774C251.796 60.8897 252.425 60.755 253.056 60.7895C253.639 60.7643 254.22 60.8792 254.74 61.1231C255.128 61.3558 255.424 61.699 255.582 62.1006C255.759 62.5746 255.844 63.0735 255.834 63.5746V64.3505H253.999V63.5746C254 63.3282 253.984 63.0819 253.949 62.8376C253.934 62.6391 253.848 62.4507 253.704 62.3023C253.608 62.228 253.497 62.1726 253.377 62.1392C253.257 62.1059 253.13 62.0954 253.006 62.1083C252.877 62.098 252.748 62.1112 252.625 62.1472C252.503 62.1831 252.389 62.2411 252.29 62.3178C252.13 62.4705 252.027 62.6661 251.996 62.8764C251.954 63.1332 251.935 63.3926 251.937 63.6522V67.8571C251.929 68.1488 251.957 68.4403 252.021 68.726C252.064 68.9328 252.188 69.1177 252.37 69.2452C252.552 69.3726 252.778 69.4337 253.006 69.4165C253.129 69.4302 253.254 69.4184 253.372 69.3822C253.49 69.346 253.598 69.2862 253.688 69.2071C253.831 69.0486 253.919 68.8539 253.94 68.6485C253.983 68.3918 254.003 68.1323 253.999 67.8727V66.9882H255.834V67.764C255.85 68.2903 255.768 68.8152 255.59 69.3157C255.445 69.7398 255.148 70.1062 254.748 70.3553C254.233 70.6208 253.646 70.7446 253.056 70.7121Z" fill="#14121A"/>
<path d="M260.093 70.712C259.461 70.7454 258.832 70.6079 258.283 70.3163C257.847 70.0523 257.528 69.6533 257.383 69.1914C257.21 68.6235 257.128 68.0355 257.139 67.4458V60.8901H259.007V67.6475C259.003 67.9332 259.026 68.2187 259.075 68.5009C259.102 68.7414 259.208 68.9686 259.378 69.1526C259.581 69.3077 259.837 69.3926 260.102 69.3926C260.366 69.3926 260.622 69.3077 260.826 69.1526C260.989 68.9647 261.094 68.7394 261.129 68.5009C261.178 68.2187 261.2 67.9332 261.196 67.6475V60.8901H263.056V67.4535C263.069 68.0438 262.984 68.6325 262.804 69.1991C262.665 69.6596 262.351 70.0588 261.92 70.324C261.365 70.6146 260.73 70.7495 260.093 70.712Z" fill="#14121A"/>
<path d="M267.206 70.712C266.655 70.7289 266.109 70.6111 265.624 70.3706C265.194 70.142 264.857 69.7907 264.664 69.3698C264.429 68.8591 264.306 68.3107 264.302 67.7561L265.943 67.4536C265.954 67.7887 266.005 68.1218 266.095 68.4466C266.156 68.6955 266.287 68.9254 266.474 69.1138C266.561 69.1925 266.666 69.2538 266.78 69.2939C266.894 69.3339 267.017 69.3519 267.139 69.3465C267.264 69.3574 267.39 69.3398 267.506 69.2951C267.622 69.2505 267.724 69.1802 267.804 69.0905C267.939 68.8965 268.006 68.6692 267.997 68.4388C268.016 68.0706 267.907 67.7063 267.686 67.3992C267.442 67.0973 267.159 66.8238 266.844 66.5846L265.523 65.5063C265.167 65.227 264.865 64.8938 264.63 64.521C264.398 64.1069 264.285 63.6447 264.302 63.1788C264.282 62.8537 264.336 62.5283 264.46 62.2236C264.585 61.9189 264.778 61.6417 265.026 61.41C265.576 60.9739 266.288 60.7514 267.013 60.7893C267.436 60.7781 267.857 60.8468 268.25 60.991C268.562 61.1183 268.832 61.319 269.033 61.5729C269.23 61.8296 269.378 62.1157 269.471 62.4185C269.566 62.7457 269.625 63.0811 269.647 63.4193L268.014 63.6753C268.001 63.4144 267.965 63.1548 267.905 62.8995C267.862 62.6889 267.757 62.4931 267.602 62.3332C267.518 62.2626 267.42 62.2083 267.313 62.1737C267.206 62.139 267.092 62.1247 266.979 62.1315C266.856 62.1273 266.733 62.148 266.62 62.1922C266.506 62.2365 266.405 62.3031 266.322 62.3875C266.166 62.5706 266.086 62.7988 266.095 63.0314C266.093 63.3032 266.168 63.5708 266.314 63.8072C266.496 64.0491 266.711 64.2682 266.954 64.4589L268.258 65.5218C268.694 65.8586 269.069 66.2565 269.369 66.701C269.688 67.1929 269.848 67.7578 269.832 68.3302C269.842 68.7618 269.726 69.1877 269.496 69.5638C269.282 69.9174 268.964 70.2079 268.578 70.4017C268.159 70.6151 267.685 70.7221 267.206 70.712Z" fill="#14121A"/>
<path d="M272.021 70.5568V62.1935H270.337V60.8901H275.573V62.1935H273.932V70.5568H272.021Z" fill="#14121A"/>
<path d="M279.345 70.7119C278.725 70.7383 278.11 70.6039 277.569 70.324C277.127 70.0705 276.794 69.6841 276.626 69.2301C276.422 68.6838 276.325 68.1086 276.34 67.5311V63.908C276.324 63.3355 276.421 62.7651 276.626 62.2245C276.797 61.7783 277.13 61.4001 277.569 61.1539C278.128 60.9117 278.739 60.7861 279.357 60.7861C279.976 60.7861 280.586 60.9117 281.146 61.1539C281.582 61.4025 281.915 61.7798 282.089 62.2245C282.297 62.7646 282.397 63.335 282.383 63.908V67.5389C282.396 68.1118 282.296 68.6821 282.089 69.2224C281.914 69.6747 281.583 70.0617 281.146 70.324C280.597 70.6058 279.973 70.7402 279.345 70.7119ZM279.345 69.4086C279.598 69.4254 279.85 69.3564 280.052 69.2146C280.212 69.0726 280.321 68.8883 280.363 68.6871C280.415 68.447 280.441 68.2026 280.439 67.9578V63.4969C280.442 63.252 280.416 63.0075 280.363 62.7676C280.317 62.5745 280.208 62.3988 280.052 62.2633C279.848 62.1242 279.597 62.0581 279.345 62.0771C279.1 62.0602 278.858 62.1265 278.663 62.2633C278.5 62.3943 278.391 62.572 278.351 62.7676C278.291 63.0066 278.263 63.2515 278.267 63.4969V67.9578C278.265 68.2026 278.291 68.447 278.343 68.6871C278.379 68.8886 278.485 69.0738 278.646 69.2146C278.846 69.354 279.094 69.4228 279.345 69.4086Z" fill="#14121A"/>
<path d="M283.772 70.5571L283.949 60.8672H285.936L287.434 67.578L288.983 60.8672H290.936L291.104 70.5571H289.673L289.522 63.823L288.023 70.5571H286.87L285.355 63.7998L285.212 70.5571H283.772Z" fill="#14121A"/>
<path d="M292.619 70.5568V60.8901H297.03V62.1392H294.505V64.9244H296.466V66.1579H294.505V69.362H297.03V70.5568H292.619Z" fill="#14121A"/>
<path d="M298.133 70.5568V60.8902H300.658C301.266 60.8766 301.871 60.9552 302.451 61.1229C302.91 61.2544 303.306 61.5286 303.571 61.8987C303.853 62.3729 303.984 62.9106 303.949 63.4504C303.955 63.8047 303.918 64.1585 303.84 64.5055C303.768 64.7867 303.634 65.0509 303.444 65.2813C303.24 65.5118 302.973 65.6885 302.67 65.7933L304.135 70.5646H302.215L300.944 66.1269H300.06V70.5568H298.133ZM300.052 65.0097H300.65C300.939 65.0152 301.227 64.9622 301.491 64.8546C301.713 64.7611 301.885 64.5911 301.971 64.3813C302.074 64.1097 302.122 63.8232 302.114 63.5357C302.143 63.1516 302.04 62.7688 301.82 62.4418C301.678 62.3054 301.504 62.2014 301.311 62.138C301.118 62.0747 300.912 62.0539 300.709 62.0772H300.01L300.052 65.0097Z" fill="#14121A"/>
<path d="M308.537 70.5568V60.8901H310.456V69.362H312.982V70.5568H308.537Z" fill="#14121A"/>
<path d="M316.719 70.7119C316.099 70.7383 315.484 70.6039 314.943 70.324C314.501 70.0705 314.168 69.6841 314 69.2301C313.797 68.6838 313.7 68.1086 313.714 67.5311V63.908C313.698 63.3355 313.795 62.7651 314 62.2245C314.171 61.7783 314.504 61.4001 314.943 61.1539C315.503 60.9117 316.113 60.7861 316.732 60.7861C317.35 60.7861 317.961 60.9117 318.521 61.1539C318.957 61.4025 319.289 61.7798 319.463 62.2245C319.676 62.7636 319.775 63.3348 319.758 63.908V67.5389C319.775 68.1121 319.675 68.6831 319.463 69.2224C319.288 69.6747 318.957 70.0617 318.521 70.324C317.971 70.6058 317.347 70.7402 316.719 70.7119ZM316.719 69.4086C316.973 69.4254 317.224 69.3564 317.426 69.2146C317.589 69.0746 317.699 68.8894 317.738 68.6871C317.79 68.447 317.815 68.2026 317.813 67.9578V63.4969C317.816 63.252 317.791 63.0075 317.738 62.7676C317.695 62.5732 317.586 62.3965 317.426 62.2633C317.223 62.1242 316.972 62.0581 316.719 62.0771C316.475 62.0602 316.232 62.1265 316.037 62.2633C315.875 62.3943 315.765 62.572 315.726 62.7676C315.673 63.0075 315.647 63.252 315.65 63.4969V67.9578C315.646 68.2024 315.668 68.4467 315.718 68.6871C315.754 68.8886 315.86 69.0738 316.021 69.2146C316.221 69.354 316.469 69.4228 316.719 69.4086Z" fill="#14121A"/>
<path d="M322.536 70.5568V66.8562L320.397 60.8901H322.19L323.487 64.7304L324.707 60.8901H326.458L324.354 66.8794V70.5568H322.536Z" fill="#14121A"/>
<path d="M326.45 70.5571L328.554 60.8672H330.608L332.704 70.5571H330.928L330.515 68.3228H328.68L328.251 70.5571H326.45ZM328.882 67.1978H330.305L329.59 63.1326L328.882 67.1978Z" fill="#14121A"/>
<path d="M333.706 70.5568V60.8901H335.625V69.362H338.151V70.5568H333.706Z" fill="#14121A"/>
<path d="M339.699 70.5568V62.1935H338.016V60.8901H343.26V62.1935H341.576V70.5568H339.699Z" fill="#14121A"/>
<path d="M345.693 70.5571V66.8565L343.563 60.8672H345.356L346.652 64.7075L347.873 60.8672H349.624L347.519 66.8565V70.5571H345.693Z" fill="#14121A"/>
<path d="M81.6549 79.9212V71.8915L72.9594 70.9993C72.4908 69.3262 71.7742 67.7207 70.8297 66.228L76.3265 59.8974L70.1647 54.265L63.3296 59.3C61.7116 58.4248 59.9732 57.7542 58.1611 57.3062L57.1931 49.2222H48.506L47.5212 57.2286C45.7036 57.6651 43.959 58.3281 42.3359 59.1991L35.467 54.1331L29.3137 59.812L34.7852 66.1117C33.8328 67.6026 33.1023 69.2048 32.6134 70.8752L23.8843 71.7674V79.7893L32.5798 80.6815C33.0504 82.3564 33.7669 83.9642 34.7094 85.4605L29.2127 91.7911L35.3744 97.4623L42.2096 92.4195C43.8258 93.298 45.5647 93.9688 47.3781 94.4134L48.3461 102.466H57.0584L58.018 94.4522C59.8353 94.0184 61.5798 93.358 63.2033 92.4894L70.0722 97.5477L76.2255 91.8765L70.754 85.5769C71.7064 84.0859 72.4368 82.4837 72.9257 80.8134L81.6549 79.9212ZM52.7738 85.4217C50.7173 85.4232 48.7066 84.8626 46.9959 83.8107C45.2852 82.7589 43.9514 81.263 43.1633 79.5124C42.3752 77.7618 42.1681 75.835 42.5683 73.9759C42.9684 72.1168 43.9579 70.4089 45.4114 69.0681C46.865 67.7274 48.7173 66.8141 50.7341 66.4437C52.751 66.0734 54.8417 66.2627 56.7417 66.9877C58.6418 67.7126 60.2659 68.9407 61.4086 70.5165C62.5513 72.0923 63.1612 73.945 63.1612 75.8404C63.1612 78.3802 62.0671 80.816 60.1193 82.6126C58.1715 84.4093 55.5295 85.4196 52.7738 85.4217Z" fill="#14121A" stroke="#14121A" stroke-linecap="round" stroke-linejoin="round"/>
<path d="M115.847 63.8153L114.879 58.501L108.987 58.7958C108.47 57.7384 107.802 56.7495 107 55.8555L109.955 51.0997L105.199 47.9964L101.276 52.0307C100.1 51.6188 98.8679 51.3578 97.6146 51.2549L96.0068 46.0259L90.2407 46.9103L90.569 52.341C89.418 52.8155 88.342 53.4314 87.3703 54.1719L82.1765 51.4566L78.8095 55.8167L83.1867 59.4242C82.7398 60.5083 82.4566 61.6439 82.3449 62.799L76.6377 64.3506L77.6057 69.6572L83.4981 69.3624C84.0089 70.4211 84.6744 71.4104 85.4763 72.3027L82.6058 77.0585L87.3618 80.1617L91.2845 76.1275C92.4608 76.5394 93.6928 76.8004 94.9462 76.9033L96.554 82.1323L102.32 81.2479L101.992 75.8172C103.143 75.3427 104.219 74.7268 105.191 73.9863L110.342 76.6395L113.709 72.2484L109.332 68.6409C109.775 67.5556 110.058 66.4206 110.174 65.2661L115.847 63.8153ZM97.3789 70.402C96.0196 70.6099 94.6239 70.4418 93.3682 69.9189C92.1124 69.3961 91.0531 68.5419 90.3239 67.4643C89.5947 66.3868 89.2284 65.1342 89.2713 63.8648C89.3143 62.5955 89.7644 61.3664 90.565 60.3327C91.3656 59.2991 92.4806 58.5074 93.7692 58.0576C95.0578 57.6078 96.4621 57.5201 97.8048 57.8056C99.1474 58.0911 100.368 58.737 101.313 59.6617C102.257 60.5864 102.883 61.7483 103.111 63.0007C103.416 64.6793 102.987 66.4008 101.917 67.7881C100.847 69.1754 99.2244 70.1153 97.4041 70.402H97.3789Z" fill="#626166" stroke="#14121A" stroke-linecap="round" stroke-linejoin="round"/>
<path d="M102.203 112.7L101.234 107.385L95.3421 107.68C94.8252 106.623 94.1571 105.634 93.3555 104.74L96.2344 99.9918L91.47 96.8885L87.5557 100.923C86.3777 100.516 85.1464 100.255 83.894 100.147L82.2778 94.918L76.5201 95.8102L76.84 101.241C75.6909 101.719 74.6154 102.334 73.6413 103.072L68.4897 100.426L65.1226 104.81L69.4998 108.425C69.0539 109.507 68.7707 110.639 68.658 111.792L62.9761 113.227L63.9357 118.542L69.8281 118.239C70.3397 119.301 71.0083 120.293 71.8147 121.187L68.9358 125.935L73.6918 129.038L77.6144 125.004C78.7907 125.416 80.0228 125.677 81.2761 125.78L82.8839 131.017L88.65 130.124L88.3302 124.694C89.4788 124.223 90.5522 123.61 91.5205 122.871L96.6805 125.516L100.048 121.133L95.6704 117.517C96.1134 116.432 96.3965 115.297 96.5122 114.143L102.203 112.7ZM83.7425 119.294C82.3811 119.505 80.9823 119.34 79.723 118.818C78.4637 118.297 77.4006 117.442 76.6682 116.364C75.9358 115.285 75.567 114.031 75.6084 112.759C75.6499 111.487 76.0997 110.255 76.9011 109.219C77.7024 108.183 78.8192 107.389 80.1102 106.938C81.4012 106.487 82.8083 106.399 84.1535 106.685C85.4987 106.972 86.7215 107.619 87.6673 108.546C88.613 109.473 89.2392 110.638 89.4666 111.893C89.771 113.574 89.3392 115.297 88.266 116.685C87.1928 118.073 85.5659 119.011 83.7425 119.294Z" fill="white" stroke="#14121A" stroke-linecap="round" stroke-linejoin="round"/>
<path d="M47.8074 151.025C47.2561 151.045 46.709 150.927 46.2249 150.683C45.8003 150.453 45.4647 150.106 45.2653 149.69C45.0316 149.179 44.9086 148.631 44.9033 148.077L46.5869 147.774C46.5993 148.109 46.6473 148.441 46.73 148.767C46.7913 149.014 46.9219 149.241 47.1088 149.427C47.1969 149.505 47.3013 149.565 47.4155 149.605C47.5298 149.645 47.6516 149.664 47.7738 149.659C47.899 149.672 48.0256 149.655 48.1419 149.61C48.2581 149.565 48.3602 149.494 48.4387 149.403C48.5774 149.211 48.6452 148.982 48.6324 148.752C48.6496 148.383 48.5407 148.02 48.3209 147.712C48.0774 147.421 47.7945 147.161 47.4791 146.936L46.1323 145.811C45.7783 145.532 45.4792 145.199 45.2484 144.826C45.0162 144.409 44.9032 143.944 44.9202 143.476C44.8998 143.151 44.9538 142.825 45.0785 142.521C45.2032 142.216 45.3959 141.939 45.6441 141.707C46.1946 141.272 46.9064 141.049 47.6307 141.087C48.0519 141.074 48.471 141.146 48.8596 141.296C49.1714 141.423 49.4414 141.624 49.6425 141.878C49.8414 142.131 49.9896 142.415 50.0802 142.716C50.1732 143.044 50.2352 143.379 50.2654 143.717L48.5818 143.98C48.568 143.719 48.5314 143.46 48.4724 143.204C48.4372 142.995 48.3346 142.801 48.1778 142.646C48.0931 142.574 47.9934 142.52 47.8848 142.485C47.7762 142.45 47.6611 142.436 47.5465 142.444C47.4234 142.44 47.3008 142.461 47.1873 142.505C47.0739 142.549 46.9723 142.616 46.8899 142.7C46.7346 142.881 46.654 143.106 46.6626 143.336C46.6577 143.608 46.7334 143.877 46.8815 144.112C47.0631 144.354 47.2782 144.573 47.5212 144.764L48.8765 145.811C49.3092 146.148 49.6814 146.546 49.9792 146.99C50.3012 147.481 50.462 148.047 50.4422 148.62C50.4514 149.05 50.3382 149.475 50.1139 149.853C49.8973 150.209 49.5764 150.502 49.1879 150.699C48.7665 150.917 48.2905 151.029 47.8074 151.025Z" fill="#14121A"/>
<path d="M54.449 151.025C53.8167 151.058 53.1877 150.921 52.6392 150.629C52.203 150.365 51.8836 149.966 51.7385 149.504C51.5644 148.937 51.4821 148.349 51.4943 147.759V141.211H53.3631V147.968C53.3607 148.254 53.3803 148.539 53.422 148.822C53.4575 149.059 53.5655 149.283 53.7335 149.466C53.9349 149.625 54.1918 149.713 54.4574 149.713C54.723 149.713 54.9798 149.625 55.1813 149.466C55.3432 149.28 55.4479 149.058 55.4843 148.822C55.5289 148.539 55.5514 148.254 55.5517 147.968V141.211H57.412V147.759C57.426 148.349 57.3408 148.938 57.1595 149.504C57.0314 149.959 56.7333 150.357 56.3177 150.629C55.7516 150.93 55.1007 151.068 54.449 151.025Z" fill="#14121A"/>
<path d="M58.9102 150.893V141.211H61.9742C62.509 141.191 63.04 141.301 63.5146 141.529C63.8973 141.75 64.1924 142.079 64.3564 142.468C64.5541 142.942 64.6485 143.449 64.6342 143.957C64.6622 144.493 64.5435 145.026 64.2891 145.509C64.0711 145.881 63.7245 146.176 63.3042 146.347C62.837 146.533 62.3314 146.623 61.8227 146.61H60.7789V150.916L58.9102 150.893ZM60.8294 145.346H61.5617C61.8505 145.363 62.1395 145.315 62.4035 145.206C62.5006 145.162 62.5867 145.101 62.6563 145.024C62.7259 144.948 62.7774 144.86 62.8075 144.764C62.891 144.5 62.928 144.225 62.917 143.949C62.9251 143.663 62.8968 143.376 62.8328 143.096C62.7869 142.895 62.6568 142.72 62.4708 142.607C62.2081 142.493 61.9192 142.44 61.6291 142.452H60.8967L60.8294 145.346Z" fill="#14121A"/>
<path d="M65.6948 150.893V141.211H68.7841C69.3189 141.191 69.8499 141.301 70.3246 141.529C70.7072 141.75 71.0024 142.079 71.1663 142.468C71.364 142.942 71.4584 143.449 71.4441 143.957C71.4721 144.493 71.3534 145.026 71.099 145.509C70.8811 145.881 70.5345 146.176 70.1141 146.347C69.6469 146.533 69.1414 146.623 68.6326 146.61H67.5972V150.916L65.6948 150.893ZM67.6225 145.346H68.3464C68.6352 145.363 68.9242 145.315 69.1882 145.206C69.2853 145.162 69.3714 145.101 69.4409 145.024C69.5105 144.948 69.5621 144.86 69.5922 144.764C69.6757 144.5 69.7127 144.225 69.7016 143.949C69.7098 143.663 69.6815 143.376 69.6175 143.096C69.5716 142.895 69.4415 142.72 69.2555 142.607C68.9928 142.493 68.7038 142.44 68.4137 142.452H67.6898L67.6225 145.346Z" fill="#14121A"/>
<path d="M75.3919 151.025C74.7727 151.055 74.1569 150.923 73.6157 150.645C73.1712 150.389 72.8354 150 72.6645 149.543C72.4609 148.997 72.364 148.421 72.3783 147.844V144.26C72.3615 143.69 72.4586 143.122 72.6645 142.584C72.8391 142.137 73.1749 141.759 73.6157 141.513C74.1594 141.241 74.7739 141.112 75.3919 141.141C76.0154 141.109 76.6362 141.238 77.1848 141.513C77.6239 141.761 77.9591 142.138 78.136 142.584C78.342 143.122 78.439 143.69 78.4222 144.26V147.898C78.4367 148.468 78.3398 149.036 78.136 149.574C77.9599 150.028 77.6254 150.416 77.1848 150.676C76.6337 150.943 76.013 151.063 75.3919 151.025ZM75.3919 149.721C75.6443 149.74 75.8956 149.674 76.0989 149.535C76.2563 149.392 76.3621 149.208 76.402 149.008C76.4542 148.768 76.4796 148.523 76.4777 148.278V143.817C76.4804 143.573 76.455 143.328 76.402 143.088C76.3637 142.892 76.2573 142.712 76.0989 142.576C75.8896 142.455 75.6475 142.391 75.4003 142.391C75.1531 142.391 74.9109 142.455 74.7016 142.576C74.5406 142.711 74.4313 142.891 74.3901 143.088C74.3371 143.328 74.3117 143.573 74.3144 143.817V148.278C74.3141 148.523 74.3366 148.767 74.3817 149.008C74.3889 149.119 74.4219 149.227 74.4785 149.325C74.5352 149.424 74.614 149.51 74.7099 149.577C74.8057 149.645 74.9162 149.693 75.0338 149.718C75.1515 149.743 75.2736 149.744 75.3919 149.721Z" fill="#14121A"/>
<path d="M79.8364 150.893V141.211H82.3617C82.972 141.197 83.5806 141.275 84.1631 141.443C84.6206 141.574 85.0139 141.849 85.2742 142.219C85.5617 142.692 85.6961 143.23 85.6615 143.771C85.6642 144.123 85.6247 144.474 85.5436 144.818C85.4743 145.1 85.3393 145.365 85.148 145.594C84.9442 145.824 84.6765 145.998 84.3736 146.098L85.8382 150.869H83.919L82.6479 146.432H81.8062V150.869L79.8364 150.893ZM81.7557 145.346H82.3533C82.659 145.36 82.9642 145.309 83.2456 145.198C83.4631 145.099 83.6316 144.927 83.717 144.717C83.82 144.448 83.8685 144.164 83.8601 143.879C83.8933 143.495 83.7899 143.111 83.5655 142.785C83.4264 142.648 83.2539 142.543 83.062 142.48C82.8702 142.417 82.6648 142.396 82.4627 142.421H81.7557V145.346Z" fill="#14121A"/>
<path d="M88.1196 150.893V142.514H86.436V141.211H91.6718V142.514H90.0304V150.893H88.1196Z" fill="#14121A"/>
<path d="M38.0428 223.121H29.3726V246.962H38.0428V223.121Z" fill="#14121A" stroke="#14121A" stroke-width="0.5" stroke-linecap="round" stroke-linejoin="round"/>
<path d="M51.6712 231.694H43.001V246.962H51.6712V231.694Z" fill="#219EBC" stroke="#14121A" stroke-linecap="round" stroke-linejoin="round"/>
<path d="M65.2991 217.9H56.6289V246.962H65.2991V217.9Z" fill="#14121A" stroke="#14121A" stroke-width="0.5" stroke-linecap="round" stroke-linejoin="round"/>
<path d="M78.9275 223.913H70.2573V246.962H78.9275V223.913Z" fill="#219EBC" stroke="#14121A" stroke-linecap="round" stroke-linejoin="round"/>
<path d="M92.556 218.645H83.8857V246.962H92.556V218.645Z" fill="#14121A" stroke="#14121A" stroke-width="0.5" stroke-linecap="round" stroke-linejoin="round"/>
<path d="M106.176 201.864H97.5054V246.962H106.176V201.864Z" fill="#219EBC" stroke="#14121A" stroke-linecap="round" stroke-linejoin="round"/>
<path d="M115.923 201.383H120.999" stroke="#14121A" stroke-width="0.5" stroke-linecap="round" stroke-linejoin="round"/>
<path d="M115.923 210.499H120.999" stroke="#14121A" stroke-width="0.5" stroke-linecap="round" stroke-linejoin="round"/>
<path d="M115.923 219.622H120.999" stroke="#14121A" stroke-width="0.5" stroke-linecap="round" stroke-linejoin="round"/>
<path d="M115.923 228.738H120.999" stroke="#14121A" stroke-width="0.5" stroke-linecap="round" stroke-linejoin="round"/>
<path d="M115.923 237.854H120.999" stroke="#14121A" stroke-width="0.5" stroke-linecap="round" stroke-linejoin="round"/>
<path d="M115.923 246.97H120.999" stroke="#14121A" stroke-width="0.5" stroke-linecap="round" stroke-linejoin="round"/>
<path d="M34.3306 214.331L47.6221 221.732L61.4355 208.093L75.0806 209.156L88.3132 204.315L103.271 186.169" stroke="#14121A" stroke-linecap="round" stroke-linejoin="round"/>
<path d="M36.0058 214.331C36.0058 214.024 35.907 213.724 35.722 213.469C35.537 213.214 35.2741 213.015 34.9665 212.897C34.6588 212.78 34.3203 212.749 33.9938 212.809C33.6672 212.869 33.3672 213.017 33.1318 213.234C32.8963 213.451 32.736 213.727 32.671 214.028C32.6061 214.329 32.6394 214.641 32.7668 214.925C32.8942 215.208 33.11 215.451 33.3869 215.621C33.6637 215.792 33.9892 215.883 34.3222 215.883C34.7687 215.883 35.1969 215.719 35.5127 215.428C35.8284 215.137 36.0058 214.742 36.0058 214.331Z" fill="#14121A"/>
<path d="M49.2973 221.732C49.2973 221.425 49.1985 221.125 49.0135 220.87C48.8285 220.615 48.5656 220.416 48.258 220.299C47.9504 220.181 47.6118 220.151 47.2853 220.21C46.9587 220.27 46.6587 220.418 46.4233 220.635C46.1878 220.852 46.0275 221.129 45.9625 221.43C45.8976 221.731 45.9309 222.043 46.0583 222.326C46.1857 222.61 46.4015 222.852 46.6784 223.022C46.9552 223.193 47.2807 223.284 47.6137 223.284C48.0602 223.284 48.4884 223.12 48.8042 222.829C49.1199 222.538 49.2973 222.144 49.2973 221.732Z" fill="#14121A"/>
<path d="M63.1107 208.094C63.1107 207.787 63.012 207.487 62.827 207.232C62.642 206.976 62.3791 206.778 62.0715 206.66C61.7638 206.543 61.4253 206.512 61.0987 206.572C60.7722 206.632 60.4722 206.779 60.2367 206.996C60.0013 207.213 59.841 207.49 59.776 207.791C59.711 208.092 59.7444 208.404 59.8718 208.687C59.9992 208.971 60.215 209.213 60.4919 209.384C60.7687 209.554 61.0942 209.645 61.4272 209.645C61.8737 209.645 62.3019 209.482 62.6176 209.191C62.9334 208.9 63.1107 208.505 63.1107 208.094Z" fill="#14121A"/>
<path d="M76.7557 209.157C76.7557 208.85 76.657 208.55 76.472 208.295C76.287 208.039 76.0241 207.841 75.7165 207.723C75.4088 207.606 75.0703 207.575 74.7438 207.635C74.4172 207.695 74.1172 207.842 73.8818 208.059C73.6463 208.276 73.486 208.553 73.421 208.854C73.3561 209.155 73.3894 209.467 73.5168 209.75C73.6442 210.034 73.86 210.276 74.1369 210.447C74.4137 210.617 74.7392 210.708 75.0722 210.708C75.5187 210.708 75.9469 210.545 76.2627 210.254C76.5784 209.963 76.7557 209.568 76.7557 209.157Z" fill="#14121A"/>
<path d="M89.9882 204.075C89.9882 203.768 89.8894 203.468 89.7044 203.213C89.5194 202.958 89.2565 202.759 88.9489 202.642C88.6413 202.524 88.3028 202.493 87.9762 202.553C87.6496 202.613 87.3496 202.761 87.1142 202.978C86.8787 203.195 86.7184 203.471 86.6534 203.772C86.5885 204.073 86.6218 204.385 86.7492 204.669C86.8767 204.952 87.0924 205.195 87.3693 205.365C87.6462 205.536 87.9717 205.627 88.3046 205.627C88.7511 205.627 89.1793 205.463 89.4951 205.172C89.8108 204.881 89.9882 204.487 89.9882 204.075Z" fill="#14121A"/>
<path d="M104.955 186.154C104.955 185.847 104.856 185.547 104.671 185.292C104.486 185.036 104.223 184.838 103.916 184.72C103.608 184.603 103.27 184.572 102.943 184.632C102.616 184.692 102.316 184.84 102.081 185.057C101.846 185.274 101.685 185.55 101.62 185.851C101.555 186.152 101.589 186.464 101.716 186.747C101.843 187.031 102.059 187.273 102.336 187.444C102.613 187.614 102.938 187.705 103.271 187.705C103.718 187.705 104.146 187.542 104.462 187.251C104.778 186.96 104.955 186.565 104.955 186.154Z" fill="#14121A"/>
<path d="M32.5122 270.337V260.632H34.4062V270.314L32.5122 270.337Z" fill="#14121A"/>
<path d="M36.0225 270.337L36.2077 260.632H38.1858L39.6842 267.335L41.2414 260.632H43.1607L43.3543 270.314H41.9233L41.7717 263.603L40.2818 270.337H39.1202L37.605 263.58L37.4619 270.337H36.0225Z" fill="#14121A"/>
<path d="M44.8271 270.338V260.632H47.9164C48.4512 260.613 48.9822 260.722 49.4569 260.95C49.8395 261.172 50.1347 261.501 50.2986 261.889C50.4963 262.364 50.5907 262.87 50.5764 263.378C50.6034 263.914 50.4847 264.447 50.2313 264.93C50.0134 265.303 49.6668 265.598 49.2464 265.768C48.7793 265.954 48.2737 266.044 47.7649 266.032H46.7464V270.338H44.8271ZM46.7464 264.79H47.4787C47.7675 264.808 48.0565 264.76 48.3205 264.651C48.4176 264.607 48.5037 264.545 48.5733 264.469C48.6429 264.393 48.6944 264.304 48.7245 264.209C48.808 263.944 48.845 263.669 48.834 263.394C48.8421 263.107 48.8138 262.821 48.7498 262.541C48.7299 262.44 48.6874 262.345 48.625 262.261C48.5627 262.177 48.4819 262.105 48.3878 262.052C48.1251 261.938 47.8362 261.884 47.5461 261.897H46.8137L46.7464 264.79Z" fill="#14121A"/>
<path d="M51.6206 270.337V260.632H54.1459C54.7562 260.618 55.3648 260.697 55.9473 260.865C56.4048 260.995 56.798 261.27 57.0584 261.641C57.3459 262.113 57.4802 262.651 57.4457 263.192C57.4484 263.544 57.4089 263.895 57.3278 264.239C57.257 264.521 57.1222 264.785 56.9322 265.015C56.7284 265.245 56.4607 265.419 56.1577 265.52L57.6308 270.291H55.6864L54.3984 265.9H53.5567V270.337H51.6206ZM53.5567 264.79H54.1459C54.4516 264.804 54.7568 264.754 55.0382 264.643C55.2557 264.543 55.4242 264.371 55.5096 264.162C55.6177 263.892 55.6663 263.604 55.6527 263.316C55.6814 262.933 55.5815 262.551 55.3665 262.222C55.2246 262.086 55.0503 261.983 54.8575 261.919C54.6647 261.856 54.4585 261.835 54.2553 261.858H53.5567V264.79Z" fill="#14121A"/>
<path d="M61.6966 270.469C61.0776 270.499 60.462 270.367 59.9205 270.089C59.4759 269.833 59.1402 269.444 58.9693 268.987C58.7697 268.44 58.6729 267.866 58.6831 267.288V263.665C58.6714 263.096 58.7683 262.528 58.9693 261.99C59.1438 261.543 59.4796 261.165 59.9205 260.919C60.4777 260.674 61.0875 260.546 61.705 260.546C62.3226 260.546 62.9323 260.674 63.4896 260.919C63.9286 261.167 64.2639 261.544 64.4408 261.99C64.6496 262.527 64.7495 263.095 64.7354 263.665V267.304C64.7474 267.874 64.6476 268.442 64.4408 268.98C64.2646 269.434 63.9301 269.821 63.4896 270.081C62.944 270.365 62.3221 270.499 61.6966 270.469ZM61.6966 269.166C61.9505 269.186 62.2034 269.117 62.4037 268.972C62.5627 268.833 62.669 268.651 62.7067 268.452C62.7589 268.212 62.7843 267.968 62.7825 267.723V263.262C62.7852 263.017 62.7598 262.773 62.7067 262.533C62.6684 262.336 62.5621 262.157 62.4037 262.021C62.1944 261.899 61.9522 261.835 61.705 261.835C61.4578 261.835 61.2157 261.899 61.0064 262.021C60.8453 262.156 60.7361 262.335 60.6949 262.533C60.6418 262.773 60.6164 263.017 60.6191 263.262V267.723C60.6173 267.968 60.6427 268.212 60.6949 268.452C60.7256 268.653 60.8331 268.837 60.9979 268.972C61.1957 269.116 61.4455 269.185 61.6966 269.166Z" fill="#14121A"/>
<path d="M67.7067 270.337L65.5854 260.632H67.269L68.6579 267.482L69.9711 260.632H71.7135L69.6007 270.314L67.7067 270.337Z" fill="#14121A"/>
<path d="M72.791 270.337V260.632H77.2019V261.873H74.6766V264.658H76.6295V265.892H74.6766V269.096H77.2019V270.314L72.791 270.337Z" fill="#14121A"/>
<path d="M78.313 270.337L78.4982 260.655H80.4932L81.9831 267.358L83.5404 260.655H85.4596L85.6532 270.337H84.2222L84.0707 263.603L82.5808 270.337H81.4191L79.8955 263.58L79.7524 270.337H78.313Z" fill="#14121A"/>
<path d="M87.1265 270.337V260.632H91.5373V261.873H89.012V264.658H90.9649V265.892H89.012V269.096H91.5373V270.314L87.1265 270.337Z" fill="#14121A"/>
<path d="M92.6733 270.337V260.632H94.0117L96.5371 266.156V260.632H98.1701V270.314H96.899L94.3232 264.526V270.314L92.6733 270.337Z" fill="#14121A"/>
<path d="M100.796 270.337V261.958H99.1128V260.632H104.357V261.935H102.673V270.314L100.796 270.337Z" fill="#14121A"/>
<path d="M335.819 319.826H260.868L272.105 281.695H324.573L335.819 319.826Z" fill="#14121A" stroke="#14121A" stroke-linecap="round" stroke-linejoin="round"/>
<path d="M355.305 319.826H241.38V323.698H355.305V319.826Z" fill="#14121A" stroke="#14121A" stroke-linecap="round" stroke-linejoin="round"/>
<path d="M460.358 96.1123H136.319V285.698H460.358V96.1123Z" fill="#14121A" stroke="#14121A" stroke-linecap="round" stroke-linejoin="round"/>
<path d="M449.979 103.343H146.707V278.475H449.979V103.343Z" fill="#B1B0B3" stroke="#14121A" stroke-linecap="round" stroke-linejoin="round"/>
<path d="M238.333 147.533L218.687 150.559L224.882 234.075L253.359 236.193C253.359 236.193 259.546 204.082 259.9 198.869C260.253 193.655 249.798 154.539 249.798 154.539L238.333 147.533Z" fill="#FB8500" stroke="#14121A" stroke-linecap="round" stroke-linejoin="round"/>
<path d="M267.366 278.475C268.012 276.418 268.332 274.286 268.317 272.145C268.09 269.041 267.197 264.301 267.197 264.301L259.133 264.922L262.256 278.475H267.366Z" fill="white" stroke="#14121A" stroke-linecap="round" stroke-linejoin="round"/>
<path d="M180.9 278.476H262.45C262.231 276.823 261.608 272.657 260.96 268.475C260.076 263.099 254.066 225.441 254.066 225.441L194.132 220.22C194.132 220.22 180.159 245.162 178.214 252.494C176.27 259.825 180.664 277.102 180.664 277.102L180.9 278.476Z" fill="#14121A" stroke="#14121A" stroke-linecap="round" stroke-linejoin="round"/>
<path d="M259.899 90.806C259.899 90.806 264.495 89.8284 266.44 96.5082C268.384 103.188 266.086 106.594 266.97 109.875C267.854 113.157 269.757 120.791 267.45 128.448C265.144 136.106 256.894 141.637 256.507 144.43L256.154 147.2C256.154 147.2 254.916 148.34 251.027 148.015C247.138 147.689 242.357 145.082 242.357 145.082L242.887 139.543C242.887 139.543 249.621 139.543 251.204 138.402C252.786 137.262 259.689 125.989 260.219 122.754C260.75 119.519 261.103 110.201 260.573 107.432C260.042 104.662 256.364 98.952 254.916 98.4633C253.468 97.9745 246.953 93.7385 246.953 93.7385C246.953 93.7385 256.01 88.688 259.899 90.806Z" fill="#14121A" stroke="#14121A" stroke-linecap="round" stroke-linejoin="round"/>
<path d="M264.319 160.893C264.319 160.893 269.984 163.337 270.161 167.41C270.337 171.483 267.147 189.575 267.147 190.886C267.147 192.197 265.556 219.242 265.556 219.242L268.982 266.357L260.926 266.776C260.926 266.776 253.898 231.927 254.596 227.722C255.295 223.517 259.546 202.616 259.899 198.869C260.253 195.122 259.369 179.148 260.606 174.423C261.844 169.699 264.319 160.893 264.319 160.893Z" fill="white" stroke="#14121A" stroke-linecap="round" stroke-linejoin="round"/>
<path d="M252.214 94.3588C252.214 94.3588 260.952 97.6482 262.366 103.358C263.78 109.068 261.659 116.229 262.366 120.799C263.073 125.368 256.002 136.773 253.527 139.542C251.053 142.312 245.034 141.334 245.034 141.334L245.943 150.466C245.943 150.466 249.647 161.87 249.108 164.803C248.569 167.735 242.736 172.041 235.32 171.645C226.119 171.157 223.283 163.267 223.283 163.267L224.52 145.175C224.829 141.447 224.714 137.7 224.175 133.995C223.291 127.315 225.236 117.207 225.943 115.577C226.65 113.948 233.199 107.268 237.264 104.662C241.33 102.055 249.285 94.576 249.285 94.576C249.285 94.576 251.625 93.6683 252.214 94.3588Z" fill="white" stroke="#14121A" stroke-linecap="round" stroke-linejoin="round"/>
<path d="M224.166 148.596C224.166 148.596 196.944 150.924 193.021 153.391C189.098 155.858 194.789 208.155 194.789 208.155C194.789 208.155 172.903 252.493 173.568 252.819C174.233 253.145 184.704 261.128 195.849 262.905C206.994 264.681 223.257 266.008 223.257 266.008C223.257 266.008 229.091 221.996 229.798 218.575C230.505 215.153 228.207 181.25 228.56 176.526C228.914 171.801 224.166 148.596 224.166 148.596Z" fill="white" stroke="#14121A" stroke-linecap="round" stroke-linejoin="round"/>
<path d="M224.949 201.623C225.752 203.364 226.674 205.056 227.71 206.689" stroke="#14121A" stroke-linecap="round" stroke-linejoin="round"/>
<path d="M217.971 159.458C219.141 169.225 220.942 184.4 221.523 190.063C221.931 193.515 222.851 196.898 224.259 200.118" stroke="#14121A" stroke-linecap="round" stroke-linejoin="round"/>
<path d="M216.918 150.722C216.918 150.722 217.196 153.049 217.617 156.548" stroke="#14121A" stroke-linecap="round" stroke-linejoin="round"/>
<path d="M252.214 94.359C250.454 97.1287 248.485 99.7808 246.322 102.296C243.241 105.701 231.557 112.692 231.557 112.692C231.557 112.692 231.759 116.477 230.934 117.61C230.109 118.743 227.449 117.99 227.449 117.99C227.449 117.99 225.606 127.246 226.22 134.057C226.835 140.869 230.53 142.747 229.503 144.453C228.476 146.16 222.003 150.66 213.19 147.471C204.376 144.283 199.856 141.04 197.6 135.935C195.344 130.83 203.248 103.622 208.989 94.9254C214.73 86.2285 228.476 80.5573 236.885 81.5038C245.295 82.4503 260.27 86.6086 261.499 89.8205C262.728 93.0324 252.214 94.359 252.214 94.359Z" fill="#14121A" stroke="#14121A" stroke-linecap="round" stroke-linejoin="round"/>
<path d="M225.943 115.554C225.943 115.554 218.03 123.669 216.405 132.428C214.781 141.187 219.663 144.942 221.565 145.695" stroke="#626166" stroke-linecap="round" stroke-linejoin="round"/>
<path d="M202.592 131.233C202.378 132.905 202.55 134.6 203.097 136.206" stroke="#626166" stroke-linecap="round" stroke-linejoin="round"/>
<path d="M239.587 99.4795C237.597 101.111 235.472 102.597 233.232 103.925C222.483 110.395 208.122 118.177 203.77 127.261" stroke="#626166" stroke-linecap="round" stroke-linejoin="round"/>
<path d="M245.48 89.9058C245.48 89.9058 246.389 92.528 242.315 96.9424" stroke="#626166" stroke-linecap="round" stroke-linejoin="round"/>
<path d="M245.943 150.466C245.943 150.466 260.96 158.775 264.319 160.893C267.677 163.011 262.02 182.895 262.551 186.805C263.081 190.715 264.672 199.994 263.081 203.919C261.49 207.845 260.606 210.281 260.606 210.281L257.601 228.21C257.601 228.21 262.551 262.602 262.374 263.122C262.197 263.642 244.865 265.729 244.865 265.729C244.865 265.729 248.047 230.817 249.823 223.509C251.599 216.201 257.399 205.417 256.01 193.361C254.621 181.304 245.943 150.466 245.943 150.466Z" fill="white" stroke="#14121A" stroke-linecap="round" stroke-linejoin="round"/>
<path d="M259.571 193.345C259.35 197.271 258.322 201.123 256.541 204.695" stroke="#14121A" stroke-linecap="round" stroke-linejoin="round"/>
<path d="M254.739 157.138C254.739 157.138 259.419 180.459 259.655 189.66" stroke="#14121A" stroke-linecap="round" stroke-linejoin="round"/>
<path d="M261.474 182.895C261.474 182.895 260.396 174.757 258.948 170.482" stroke="#14121A" stroke-linecap="round" stroke-linejoin="round"/>
<path d="M248.005 116.866C248.005 118.153 247.332 119.193 246.49 119.193C245.648 119.193 244.975 118.146 244.975 116.866C244.975 115.585 245.648 114.538 246.49 114.538C247.332 114.538 248.005 115.554 248.005 116.866Z" fill="#14121A"/>
<path d="M260.876 116.866C260.876 118.153 260.202 119.193 259.361 119.193C258.519 119.193 257.837 118.146 257.837 116.866C257.837 115.585 258.519 114.538 259.361 114.538C260.202 114.538 260.876 115.554 260.876 116.866Z" fill="#14121A"/>
<path d="M241.894 112.451C243.148 111.689 244.569 111.19 246.055 110.989C247.542 110.787 249.058 110.889 250.497 111.287" stroke="#14121A" stroke-linecap="round" stroke-linejoin="round"/>
<path d="M261.128 112.451C260.697 111.994 260.101 111.695 259.451 111.61C258.8 111.524 258.137 111.658 257.585 111.985C257.585 111.985 255.312 114.786 255.817 116.64" stroke="#14121A" stroke-linecap="round" stroke-linejoin="round"/>
<path d="M256.069 127.835L251.254 128.534" stroke="#14121A" stroke-linecap="round" stroke-linejoin="round"/>
<path d="M253.056 131.567C253.056 131.567 245.968 133.429 241.667 128.534" stroke="#14121A" stroke-linecap="round" stroke-linejoin="round"/>
<path d="M245.042 141.335L238.089 139.263L244.167 146.036L245.042 141.335Z" fill="#14121A" stroke="#14121A" stroke-linecap="round" stroke-linejoin="round"/>
<path d="M370.786 150.28C369.125 152.642 367.913 155.247 367.2 157.984C366.207 162.196 365.213 166.968 365.213 166.968C365.213 166.968 370.188 163.298 370.786 163.088C371.384 162.879 370.39 158.325 370.39 158.325L373.757 155.757L370.786 150.28Z" fill="#14121A" stroke="#14121A" stroke-linecap="round" stroke-linejoin="round"/>
<path d="M372.772 88.486C372.772 88.486 367.797 90.1385 365.811 93.4357C363.824 96.7329 358.647 104.437 359.447 107.005C360.247 109.573 360.634 110.674 360.634 110.674C360.634 110.674 353.479 122.226 354.27 123.328C355.239 124.439 356.303 125.477 357.452 126.431C357.452 126.431 360.634 140.179 362.031 141.094C363.429 142.009 367.402 142.56 367.402 142.56L373.168 149.162L404.801 137.277L405.206 130.861C405.206 130.861 415.947 118.021 417.335 110.69C418.724 103.358 408.581 90.7048 397.638 85.7551C386.695 80.8054 375.163 83.5363 372.772 88.486Z" fill="white" stroke="#14121A" stroke-linecap="round" stroke-linejoin="round"/>
<path d="M362.486 114.623C363.851 115.663 365.534 116.284 367.301 116.4" stroke="#14121A" stroke-linecap="round" stroke-linejoin="round"/>
<path d="M397.638 85.7395C386.695 80.7898 375.163 83.5362 372.772 88.4859C372.772 88.4859 373.766 89.223 376.981 89.0368C380.197 88.8506 387.731 85.9335 389.717 88.4859C391.704 91.0384 383.749 93.2572 380.769 97.1052C377.789 100.953 378.581 101.139 380.963 104.088C383.345 107.036 383.749 108.308 383.354 109.588C382.958 110.868 382.36 111.97 384.944 112.342C387.529 112.715 388.312 106.842 392.302 108.673C396.292 110.504 396.881 116.004 395.483 119.674C395.142 120.699 394.578 121.651 393.828 122.471C393.077 123.29 392.154 123.962 391.115 124.445C391.115 124.445 391.704 126.827 396.081 128.844C398.951 130.09 402.069 130.777 405.24 130.861C405.24 130.861 415.98 118.021 417.369 110.69C418.758 103.358 408.581 90.728 397.638 85.7395Z" fill="#14121A" stroke="#14121A" stroke-linecap="round" stroke-linejoin="round"/>
<path d="M405.206 118.588C405.857 120.116 406.111 121.763 405.946 123.398" stroke="#626166" stroke-linecap="round" stroke-linejoin="round"/>
<path d="M382.579 99.5337C382.579 99.5337 383.984 102.125 391.838 105.236C396.266 106.989 400.433 110.713 403.084 114.647" stroke="#626166" stroke-linecap="round" stroke-linejoin="round"/>
<path d="M404.254 107.315C404.254 107.315 411.292 111.194 410.147 118.727" stroke="#626166" stroke-linecap="round" stroke-linejoin="round"/>
<path d="M365.853 111.132C365.853 112.397 365.272 113.46 364.556 113.46C363.841 113.46 363.269 112.428 363.269 111.132C363.269 109.837 363.841 108.805 364.556 108.805C365.272 108.805 365.853 109.868 365.853 111.132Z" fill="#14121A"/>
<path d="M361.644 106.089C361.644 106.089 365.222 102.21 368.378 106.275" stroke="#14121A" stroke-linecap="round" stroke-linejoin="round"/>
<path d="M360.238 126.99C360.238 126.99 365.011 126.625 367.999 123.887" stroke="#14121A" stroke-linecap="round" stroke-linejoin="round"/>
<path d="M391.106 124.43L388.917 124.973C387.943 127.665 386.307 130.113 384.136 132.126" fill="white"/>
<path d="M391.106 124.43L388.917 124.973C387.943 127.665 386.307 130.113 384.136 132.126" stroke="#14121A" stroke-linecap="round" stroke-linejoin="round"/>
<path d="M405.416 134.507C405.416 134.507 374.38 146.432 372.991 147.898C371.602 149.364 370.802 150.28 370.802 150.28L373.184 162.018L409.381 140.008L405.416 134.507Z" fill="white" stroke="#14121A" stroke-linecap="round" stroke-linejoin="round"/>
<path d="M315.153 215.308L316.879 226.984L308.815 228.753C306.595 230.133 304.278 231.374 301.879 232.469C298.621 233.881 296.314 234.409 295.144 234.409C293.974 234.409 289.774 232.818 289.774 232.818C289.774 232.818 292.653 218.489 295.919 216.899C299.185 215.308 307.855 213.004 315.153 215.308Z" fill="white" stroke="#14121A" stroke-linecap="round" stroke-linejoin="round"/>
<path d="M274.555 220.204C274.555 220.204 289.707 218.133 291.39 217.915C293.074 217.698 297.485 221.088 297.485 221.088C297.485 221.088 306.045 230.864 305.557 231.577C304.328 233.37 302.99 232.353 302.99 232.353L302.889 233.517C302.889 233.517 301.954 234.96 296.096 234.975C290.237 234.991 288.141 233.664 286.702 233.556C285.262 233.447 273.915 230.778 273.915 230.778L274.555 220.204Z" fill="white" stroke="#14121A" stroke-linecap="round" stroke-linejoin="round"/>
<path d="M269.47 219.164L275.034 220.087L274.42 231.647L269.361 231.344L269.47 219.164Z" fill="white" stroke="#14121A" stroke-linecap="round" stroke-linejoin="round"/>
<path d="M207.777 152.662C207.777 152.662 191.952 151.645 188.635 154.019C185.319 156.393 186.952 187.775 189.747 199.141C192.541 210.506 196.371 228.66 198.164 229.506C199.957 230.352 270.203 232.974 270.203 232.974L270.944 218.893L216.759 208.132L212.895 163.694" fill="white"/>
<path d="M207.777 152.662C207.777 152.662 191.952 151.645 188.635 154.019C185.319 156.393 186.952 187.775 189.747 199.141C192.541 210.506 196.371 228.66 198.164 229.506C199.957 230.352 270.203 232.974 270.203 232.974L270.944 218.893L216.759 208.132L212.895 163.694" stroke="#14121A" stroke-linecap="round" stroke-linejoin="round"/>
<path d="M303.032 232.353L300.591 229.188" stroke="#14121A" stroke-linecap="round" stroke-linejoin="round"/>
<path d="M301.348 234.184L298.394 230.716" stroke="#14121A" stroke-linecap="round" stroke-linejoin="round"/>
<path d="M311.138 216.41C311.138 216.41 296.744 212.337 293.865 215.169C290.986 218.001 284.841 225.433 286.188 226.317C287.535 227.202 292.324 223.835 293.478 223.129C294.325 222.563 295.099 221.91 295.784 221.182C297.121 222.4 298.783 223.271 300.603 223.707C302.423 224.143 304.335 224.128 306.146 223.664" fill="white"/>
<path d="M311.138 216.41C311.138 216.41 296.744 212.337 293.865 215.169C290.986 218.001 284.841 225.433 286.188 226.317C287.535 227.202 292.324 223.835 293.478 223.129C294.325 222.563 295.099 221.91 295.784 221.182C297.121 222.4 298.783 223.271 300.603 223.707C302.423 224.143 304.335 224.128 306.146 223.664" stroke="#14121A" stroke-linecap="round" stroke-linejoin="round"/>
<path d="M295.287 230.375C295.287 230.375 293.924 234.929 294.446 235.697C294.656 236.021 294.975 236.272 295.356 236.413C295.736 236.553 296.156 236.574 296.55 236.473C297.018 236.29 297.443 236.026 297.804 235.697C297.804 235.697 298.015 231.818 297.383 230.864C296.752 229.91 296.23 229.242 295.287 230.375Z" fill="white" stroke="#14121A" stroke-linecap="round" stroke-linejoin="round"/>
<path d="M291.609 230.98C291.609 230.98 290.245 235.526 290.767 236.302C290.975 236.626 291.293 236.878 291.672 237.019C292.051 237.159 292.47 237.18 292.863 237.078C293.334 236.896 293.763 236.633 294.126 236.302C294.126 236.302 294.336 232.423 293.705 231.469C293.073 230.514 292.56 229.824 291.609 230.98Z" fill="white" stroke="#14121A" stroke-linecap="round" stroke-linejoin="round"/>
<path d="M287.913 231.151C287.913 231.151 286.87 234.642 287.274 235.232C287.433 235.481 287.677 235.674 287.967 235.782C288.258 235.89 288.579 235.907 288.881 235.829C289.244 235.691 289.573 235.488 289.849 235.232C289.849 235.232 290.009 232.268 289.53 231.523C289.05 230.778 288.637 230.259 287.913 231.151Z" fill="white" stroke="#14121A" stroke-linecap="round" stroke-linejoin="round"/>
<path d="M283.562 231.29C283.562 231.29 282.72 233.618 283.057 233.998C283.204 234.168 283.401 234.296 283.625 234.365C283.85 234.433 284.091 234.441 284.319 234.386C284.597 234.299 284.856 234.167 285.085 233.998C285.085 233.998 285.211 232.027 284.833 231.539C284.454 231.05 284.134 230.701 283.562 231.29Z" fill="white" stroke="#14121A" stroke-linecap="round" stroke-linejoin="round"/>
<path d="M314 214.067L315.919 230.522L322.249 229.459L319.951 213.004L314 214.067Z" fill="white" stroke="#14121A" stroke-linecap="round" stroke-linejoin="round"/>
<path d="M318.032 211.949L321.871 232.818L348.159 229.638L351.038 205.929L318.032 211.949Z" fill="#219EBC" stroke="#14121A" stroke-linecap="round" stroke-linejoin="round"/>
<path d="M338.672 230.786L348.159 229.638L351.038 205.929L344.11 207.193L338.672 230.786Z" fill="#14121A" stroke="#14121A" stroke-linecap="round" stroke-linejoin="round"/>
<path d="M418.043 278.475L415.896 240.461C415.896 240.461 424.92 203.997 423.001 183.826C421.081 163.655 406.3 142.615 406.3 142.615C406.3 142.615 371.56 162.6 367.915 166.137C364.27 169.675 357.755 175.68 355.836 181.343C353.917 187.007 346.433 221.841 346.433 221.841C346.433 221.841 338.563 246.256 336.071 260.942C334.556 269.872 334.741 275.45 335.12 278.46L418.043 278.475Z" fill="#219EBC" stroke="#14121A" stroke-linecap="round" stroke-linejoin="round"/>
<path d="M404.995 149.264C407.376 148.374 409.702 147.366 411.965 146.246" stroke="#14121A" stroke-linecap="round" stroke-linejoin="round"/>
<path d="M357.755 189.419C360.752 184.423 364.489 178.488 366.173 176.681C369.354 173.383 393.227 153.949 401.981 150.466" stroke="#14121A" stroke-linecap="round" stroke-linejoin="round"/>
<path d="M353.277 197.015C353.277 197.015 354.699 194.532 356.644 191.274" stroke="#14121A" stroke-linecap="round" stroke-linejoin="round"/>
<path d="M375.348 198.923C375.348 210.297 373.665 221.554 374.506 232.811C370.146 247.288 362.292 260.151 356.644 273.735" stroke="#14121A" stroke-linecap="round" stroke-linejoin="round"/>
<path d="M378.547 175.587C378.547 175.587 374.961 180.537 375.357 189.699C375.407 190.824 375.424 192.36 375.416 194.183" stroke="#14121A" stroke-linecap="round" stroke-linejoin="round"/>
<path d="M413.16 180.723C413.16 180.723 405.205 237.202 404.406 241.787C403.833 245.069 391.636 263.021 384.75 272.944" stroke="#14121A" stroke-linecap="round" stroke-linejoin="round"/>
<path d="M360.583 262.447L344.312 259.841L345.373 255.271L361.29 257.885" stroke="#14121A" stroke-linecap="round" stroke-linejoin="round"/>
</svg>
