<svg width="64" height="64" viewBox="0 0 64 64" fill="none" xmlns="http://www.w3.org/2000/svg">
<rect width="64" height="64" rx="32" fill="white"/>
<rect x="7.6543" y="7.65332" width="45.9252" height="45.9252" rx="22.9626" fill="#FEFEFE"/>
<path d="M42.0983 49.7515C40.5037 49.7515 39.1482 49.1934 38.032 48.0771C36.9158 46.9609 36.3576 45.6055 36.3576 44.0108C36.3576 43.7876 36.3736 43.5561 36.4055 43.3162C36.4374 43.0777 36.4852 42.8627 36.549 42.6714L23.0585 34.8258C22.5163 35.3042 21.9103 35.6786 21.2406 35.9491C20.5708 36.2208 19.8692 36.3566 19.1357 36.3566C17.541 36.3566 16.1856 35.7985 15.0694 34.6823C13.9531 33.566 13.395 32.2106 13.395 30.616C13.395 29.0214 13.9531 27.6659 15.0694 26.5497C16.1856 25.4334 17.541 24.8753 19.1357 24.8753C19.8692 24.8753 20.5708 25.0106 21.2406 25.281C21.9103 25.5527 22.5163 25.9278 23.0585 26.4062L36.549 18.5606C36.4852 18.3693 36.4374 18.1543 36.4055 17.9157C36.3736 17.6759 36.3576 17.4444 36.3576 17.2211C36.3576 15.6265 36.9158 14.2711 38.032 13.1548C39.1482 12.0386 40.5037 11.4805 42.0983 11.4805C43.6929 11.4805 45.0484 12.0386 46.1646 13.1548C47.2808 14.2711 47.8389 15.6265 47.8389 17.2211C47.8389 18.8157 47.2808 20.1712 46.1646 21.2874C45.0484 22.4037 43.6929 22.9618 42.0983 22.9618C41.3648 22.9618 40.6631 22.8259 39.9934 22.5542C39.3236 22.2837 38.7177 21.9093 38.1755 21.4309L24.685 29.2765C24.7488 29.4679 24.7966 29.6828 24.8285 29.9214C24.8604 30.1612 24.8763 30.3927 24.8763 30.616C24.8763 30.8392 24.8604 31.0701 24.8285 31.3087C24.7966 31.5485 24.7488 31.7641 24.685 31.9555L38.1755 39.801C38.7177 39.3226 39.3236 38.9476 39.9934 38.6759C40.6631 38.4054 41.3648 38.2702 42.0983 38.2702C43.6929 38.2702 45.0484 38.8283 46.1646 39.9445C47.2808 41.0608 47.8389 42.4162 47.8389 44.0108C47.8389 45.6055 47.2808 46.9609 46.1646 48.0771C45.0484 49.1934 43.6929 49.7515 42.0983 49.7515Z" fill="#023047"/>
</svg>
