<svg width="24" height="24" viewBox="0 0 24 24" fill="none" xmlns="http://www.w3.org/2000/svg">
<path d="M23.9543 2.85952C23.0715 3.33564 22.1265 3.66321 21.1305 3.81176C22.1468 3.06159 22.9237 1.87497 23.2943 0.461361C22.341 1.14418 21.2865 1.63875 20.1653 1.91834C19.2713 0.740946 17.9932 0 16.575 0C13.8563 0 11.6528 2.71003 11.6528 6.05029C11.6528 6.53103 11.7 6.99239 11.7817 7.42976C7.692 7.19446 4.0665 4.77693 1.64175 1.1248C1.21575 2.0143 0.9735 3.04775 0.9735 4.17255C0.9735 6.27728 1.84425 8.12272 3.1605 9.20784C2.35575 9.17924 1.59825 8.90519 0.9345 8.45398V8.52687C0.9345 11.4621 2.6295 13.9091 4.8795 14.4664C4.46925 14.6002 4.03125 14.6777 3.5865 14.6777C3.27075 14.6777 2.96925 14.6399 2.6685 14.5716C3.3015 16.9744 5.1135 18.7239 7.2735 18.7765C5.59425 20.3958 3.46575 21.361 1.17225 21.361C0.7815 21.361 0.3915 21.3379 0 21.2798C2.18775 22.9961 4.77 24 7.55925 24C16.6095 24 21.555 14.7774 21.555 6.79031C21.555 6.53564 21.555 6.27636 21.5392 6.01615C22.5045 5.17001 23.34 4.09781 24 2.88258L23.9543 2.85952Z" fill="#F5F5F5"/>
</svg>
